<svg width="30" height="30" viewBox="0 0 30 30" fill="none" xmlns="http://www.w3.org/2000/svg">
<circle cx="15" cy="15" r="15" fill="#314EC0"/>
<path fill-rule="evenodd" clip-rule="evenodd" d="M13.3945 20.7412C13.3918 20.7385 13.3876 20.7385 13.3849 20.7412C13.3823 20.7438 13.378 20.7438 13.3753 20.7412L8.88579 16.2516C8.19079 15.5566 8.19079 14.4298 8.88579 13.7348C9.58079 13.0398 10.7076 13.0398 11.4026 13.7348L13.0327 15.3649C13.4232 15.7554 14.0564 15.7554 14.4469 15.3649L19.2756 10.5363C19.9599 9.85199 21.0693 9.85199 21.7535 10.5363C22.4378 11.2205 22.4378 12.33 21.7535 13.0142L13.871 20.8968C13.7824 20.9854 13.6387 20.9854 13.5501 20.8968L13.3945 20.7412Z" fill="white"/>
</svg>
