<svg width="316" height="288" viewBox="0 0 316 288" fill="none" xmlns="http://www.w3.org/2000/svg">
<g filter="url(#filter0_d_2213_693)">
<rect x="6" y="170.928" width="95.1487" height="88.4883" rx="10" fill="url(#paint0_linear_2213_693)"/>
</g>
<g filter="url(#filter1_d_2213_693)">
<rect x="110.188" y="80.061" width="95.1487" height="179.831" rx="10" fill="url(#paint1_linear_2213_693)" shape-rendering="crispEdges"/>
<rect x="110.688" y="80.561" width="94.1487" height="178.831" rx="9.5" stroke="#314EC0" shape-rendering="crispEdges"/>
</g>
<circle cx="158.089" cy="80.3875" r="22.1863" fill="url(#paint2_linear_2213_693)" stroke="#314EC0"/>
<g filter="url(#filter2_d_2213_693)">
<path fill-rule="evenodd" clip-rule="evenodd" d="M149.155 85.6073C148.098 86.6642 148.098 88.3778 149.155 89.4348C150.212 90.4917 151.926 90.4917 152.983 89.4348L157.552 84.8651C157.943 84.4746 158.576 84.4746 158.967 84.8651L163.508 89.4067C164.582 90.4802 166.322 90.4802 167.396 89.4067C168.469 88.3332 168.469 86.5927 167.396 85.5192L162.854 80.9776C162.464 80.5871 162.464 79.9539 162.854 79.5634L167.435 74.9828C168.492 73.9259 168.492 72.2123 167.435 71.1554C166.378 70.0985 164.664 70.0985 163.607 71.1554L159.027 75.7359C158.636 76.1265 158.003 76.1265 157.612 75.7359L153.181 71.3048C152.108 70.2313 150.367 70.2313 149.294 71.3048C148.22 72.3783 148.22 74.1188 149.294 75.1923L153.725 79.6234C154.115 80.014 154.115 80.6471 153.725 81.0376L149.155 85.6073Z" fill="url(#paint3_linear_2213_693)" shape-rendering="crispEdges"/>
</g>
<g filter="url(#filter3_d_2213_693)">
<rect x="214.851" y="23.9233" width="95.1487" height="235.969" rx="10" fill="url(#paint4_linear_2213_693)" shape-rendering="crispEdges"/>
<rect x="215.351" y="24.4233" width="94.1487" height="234.969" rx="9.5" stroke="#314EC0" shape-rendering="crispEdges"/>
</g>
<path d="M80.0603 208.907H79.3244C78.8256 208.907 78.564 208.621 78.564 208.097C78.564 207.582 78.8256 207.288 79.3244 207.288H79.8559C79.8477 207.222 79.8477 207.165 79.8477 207.1C79.8477 206.83 79.8641 206.552 79.8886 206.29H79.3244C78.8256 206.29 78.564 206.004 78.564 205.481C78.564 204.966 78.8256 204.671 79.3244 204.671H80.2075C80.9352 202.366 82.7504 201 85.1953 201C86.4136 201 87.2395 201.352 87.6156 201.72C87.8691 201.973 87.9672 202.243 87.9672 202.578C87.9672 203.134 87.6074 203.486 87.0677 203.486C86.5526 203.486 86.1847 203.044 85.0563 203.044C84.165 203.044 83.38 203.551 82.9712 204.671H85.2934C85.7922 204.671 86.0538 204.966 86.0538 205.481C86.0538 206.004 85.7922 206.29 85.2934 206.29H82.6033C82.5951 206.47 82.5869 206.699 82.5869 206.887C82.5869 207.034 82.5951 207.149 82.5951 207.288H85.2934C85.7922 207.288 86.0538 207.582 86.0538 208.097C86.0538 208.621 85.7922 208.907 85.2934 208.907H82.914C83.2983 209.994 84.1078 210.493 85.2116 210.493C86.3564 210.493 86.6834 210.093 87.1904 210.093C87.6646 210.093 87.9999 210.42 87.9999 210.918C87.9999 211.27 87.9099 211.499 87.6646 211.744C87.2558 212.153 86.2092 212.554 84.8273 212.554C82.3988 212.554 80.649 211.27 80.0603 208.907Z" fill="white"/>
<path d="M63.5845 208.155C63.5845 205.252 65.3997 203.445 68.4251 203.445C71.3769 203.445 73.0695 205.137 73.0695 207.868C73.0695 210.771 71.2624 212.586 68.2288 212.586C65.2771 212.586 63.5845 210.894 63.5845 208.155ZM66.3646 207.991C66.3646 209.635 67.2149 210.485 68.3433 210.485C69.4717 210.485 70.2812 209.659 70.2812 208.024C70.2812 206.397 69.439 205.546 68.3106 205.546C67.1822 205.546 66.3646 206.364 66.3646 207.991Z" fill="white"/>
<path d="M52.7095 208.155C52.7095 205.252 54.5247 203.445 57.5501 203.445C60.5019 203.445 62.1945 205.137 62.1945 207.868C62.1945 210.771 60.3874 212.586 57.3538 212.586C54.4021 212.586 52.7095 210.894 52.7095 208.155ZM55.4896 207.991C55.4896 209.635 56.3399 210.485 57.4683 210.485C58.5967 210.485 59.4062 209.659 59.4062 208.024C59.4062 206.397 58.564 205.546 57.4356 205.546C56.3072 205.546 55.4896 206.364 55.4896 207.991Z" fill="white"/>
<path d="M41.8345 208.155C41.8345 205.252 43.6497 203.445 46.6751 203.445C49.6269 203.445 51.3195 205.137 51.3195 207.868C51.3195 210.771 49.5124 212.586 46.4788 212.586C43.5271 212.586 41.8345 210.894 41.8345 208.155ZM44.6146 207.991C44.6146 209.635 45.4649 210.485 46.5933 210.485C47.7217 210.485 48.5312 209.659 48.5312 208.024C48.5312 206.397 47.689 205.546 46.5606 205.546C45.4322 205.546 44.6146 206.364 44.6146 207.991Z" fill="white"/>
<path d="M37.1406 210.927C37.1406 209.962 37.8684 209.242 38.8414 209.242C39.8062 209.242 40.4849 209.929 40.4849 210.894C40.4849 211.867 39.7735 212.586 38.8005 212.586C37.8356 212.586 37.1406 211.9 37.1406 210.927Z" fill="white"/>
<path d="M33.7473 205.89H30.5011C29.9124 205.89 29.5444 205.522 29.5444 204.761C29.5444 203.993 29.9042 203.617 30.5011 203.617H35.587C36.5928 203.617 36.9852 204.148 36.9852 204.851C36.9852 205.301 36.8626 205.71 36.6255 206.25C35.3663 209.022 34.4259 211.491 33.7881 213.715C33.5428 214.565 33.1912 214.974 32.4472 214.974C31.6622 214.974 31.1144 214.59 31.1144 213.813C31.1144 213.527 31.1798 213.273 31.2697 212.905C31.7685 210.943 32.7088 208.416 33.7473 205.89Z" fill="white"/>
<path d="M23.3304 204.582C24.516 204.582 25.1456 205.342 25.8733 205.342C26.2903 205.342 26.5356 205.219 26.7646 205.007C26.9363 204.851 27.1244 204.778 27.3206 204.778C27.7867 204.778 28.2037 205.211 28.2037 205.718C28.2037 205.906 28.1546 206.086 28.0483 206.258C27.6558 206.896 26.8627 207.337 25.8733 207.337C24.6877 207.337 24.0581 206.577 23.3304 206.577C22.9134 206.577 22.668 206.699 22.4391 206.92C22.2674 207.067 22.0793 207.141 21.8831 207.141C21.417 207.141 21 206.716 21 206.201C21 206.021 21.0491 205.841 21.1554 205.661C21.5478 205.031 22.341 204.582 23.3304 204.582ZM23.3304 207.926C24.516 207.926 25.1456 208.694 25.8733 208.694C26.2903 208.694 26.5356 208.572 26.7646 208.351C26.9363 208.204 27.1244 208.13 27.3206 208.13C27.7867 208.13 28.2037 208.555 28.2037 209.062C28.2037 209.25 28.1546 209.43 28.0483 209.61C27.6558 210.24 26.8627 210.69 25.8733 210.69C24.6877 210.69 24.0581 209.929 23.3304 209.929C22.9134 209.929 22.668 210.052 22.4391 210.264C22.2674 210.412 22.0793 210.493 21.8831 210.493C21.417 210.493 21 210.06 21 209.553C21 209.365 21.0491 209.193 21.1554 209.013C21.5478 208.376 22.341 207.926 23.3304 207.926Z" fill="white"/>
<mask id="mask0_2213_693" style="mask-type:luminance" maskUnits="userSpaceOnUse" x="27" y="227" width="55" height="15">
<path d="M81.4367 227.304H27.1704V241.354H81.4367V227.304Z" fill="white"/>
</mask>
<g mask="url(#mask0_2213_693)">
<path d="M53.2058 240.155C53.2058 240.155 53.1692 240.19 53.0961 240.227C53.0595 240.262 53.0229 240.298 52.9497 240.334C52.9131 240.37 52.8766 240.37 52.84 240.407C52.8035 240.442 52.7669 240.442 52.7303 240.479C52.6572 240.514 52.5535 240.586 52.4803 240.622C52.3706 240.658 52.267 240.731 52.1573 240.766C52.0475 240.838 51.9073 240.874 51.7976 240.91C51.7245 240.946 51.6513 240.946 51.5843 240.982C51.5111 241.018 51.4379 241.018 51.3709 241.055C51.2246 241.09 51.0478 241.162 50.9015 241.198C50.8283 241.234 50.7247 241.234 50.6516 241.27C50.5785 241.306 50.4748 241.306 50.4016 241.306C50.3285 241.306 50.2248 241.342 50.1151 241.342C50.0054 241.342 49.9384 241.379 49.8286 241.379H48.646C48.5362 241.379 48.4326 241.379 48.323 241.342C48.2132 241.342 48.1096 241.306 47.9998 241.306C47.567 241.27 47.1769 241.162 46.7806 241.06C46.3844 240.952 45.9943 240.779 45.598 240.598C45.4883 240.562 45.4213 240.49 45.3115 240.455C45.2017 240.418 45.1347 240.346 45.0615 240.31C44.8848 240.203 44.7019 240.1 44.5617 239.993C44.4154 239.884 44.2386 239.783 44.0923 239.638C44.0191 239.566 43.946 239.531 43.879 239.465C43.8058 239.393 43.7327 239.356 43.6656 239.29C43.5924 239.218 43.5193 239.183 43.4888 239.117L43.312 238.942C43.2389 238.87 43.2023 238.798 43.1353 238.769C43.0987 238.697 43.0255 238.66 42.9889 238.594C42.9524 238.522 42.8792 238.487 42.8426 238.421C42.806 238.349 42.733 238.312 42.6964 238.246C42.6598 238.174 42.6232 238.139 42.5866 238.073C42.55 238.007 42.5134 237.965 42.4769 237.898C42.4037 237.791 42.3306 237.688 42.3001 237.617C42.2635 237.509 42.1904 237.443 42.1538 237.371C42.1172 237.335 42.1172 237.299 42.0806 237.263C42.0806 237.226 42.0441 237.191 42.0441 237.155C42.0075 237.083 42.0075 237.047 41.9709 236.981C41.9343 236.909 41.8977 236.837 41.8977 236.837C41.8246 236.663 41.8977 236.483 42.0745 236.411C42.2209 236.339 42.3611 236.411 42.4707 236.519C42.4707 236.519 42.5073 236.555 42.5439 236.627C42.6171 236.699 42.6903 236.801 42.7939 236.909C42.8305 236.981 42.9036 237.053 42.9707 237.119C43.0438 237.191 43.1169 237.263 43.184 237.364C43.3303 237.539 43.5071 237.719 43.7204 237.893C43.8302 238.001 43.9338 238.067 44.0436 238.174C44.1167 238.211 44.1532 238.283 44.2203 238.319C44.2935 238.355 44.33 238.426 44.3971 238.463C44.4703 238.498 44.5434 238.57 44.5739 238.607C44.6471 238.643 44.7202 238.715 44.7873 238.75C44.9335 238.859 45.0738 238.925 45.2201 239.032C45.5066 239.207 45.8297 239.35 46.1527 239.494C46.4758 239.638 46.8355 239.741 47.1586 239.849C47.5182 239.956 47.8779 240.022 48.201 240.094C48.5607 240.131 48.9203 240.166 49.2434 240.203H49.9993C50.0725 240.203 50.1456 240.203 50.2492 240.166C50.3224 240.166 50.3955 240.166 50.4626 240.131C50.5358 240.131 50.6089 240.094 50.676 240.094C50.8222 240.059 50.9624 240.059 51.1088 240.022C51.3952 239.986 51.6086 239.914 51.8647 239.849C51.9744 239.812 52.078 239.776 52.1878 239.776C52.2975 239.741 52.3646 239.704 52.4377 239.704C52.4742 239.704 52.5108 239.669 52.5474 239.669C52.584 239.669 52.6206 239.632 52.6572 239.632C52.7303 239.597 52.7669 239.597 52.8035 239.56C52.8766 239.632 52.9131 239.632 52.9131 239.632C53.0899 239.56 53.2729 239.669 53.346 239.807C53.3825 239.95 53.346 240.124 53.1997 240.197L53.2058 240.155Z" fill="#4AB4FF"/>
<path d="M53.992 232.565C53.4189 232.038 52.5899 231.72 51.5536 231.611C50.944 231.539 50.4746 231.438 50.1515 231.293C49.865 231.149 49.6516 230.976 49.5419 230.801C49.4322 230.628 49.3652 230.411 49.3652 230.201C49.3652 229.812 49.5114 229.529 49.865 229.356C50.2247 229.146 50.6879 229.038 51.2305 229.038C51.5536 229.038 51.8767 229.074 52.1266 229.182C52.3399 229.253 52.5594 229.391 52.7362 229.536C52.913 229.68 53.0593 229.853 53.1691 230.063C53.2787 230.273 53.4555 230.418 53.7055 230.49C53.9554 230.562 54.2053 230.525 54.4247 230.418C54.6381 230.273 54.7479 230.1 54.7845 229.89C54.8211 229.68 54.7479 229.464 54.6077 229.218C54.3943 228.864 54.1383 228.546 53.8213 228.3C53.5348 228.054 53.1751 227.838 52.7423 227.7C52.3461 227.556 51.8828 227.49 51.3402 227.49C50.6575 227.49 50.0479 227.598 49.5114 227.808C48.9384 228.018 48.5056 228.336 48.146 228.726C47.8228 229.152 47.6461 229.643 47.6461 230.244C47.6461 231.053 47.9692 231.725 48.6153 232.253C49.225 232.782 50.0844 233.099 51.1634 233.207C51.8828 233.279 52.4192 233.489 52.7057 233.771C52.9922 234.053 53.1386 234.407 53.1386 234.761C53.1386 235.043 53.0654 235.289 52.8886 235.469C52.7118 235.679 52.4558 235.823 52.1692 235.93C51.5962 236.141 50.8404 236.141 50.2308 235.967C49.9442 235.858 49.6943 235.757 49.4748 235.577C49.2981 235.433 49.1518 235.258 49.042 235.115C48.9323 234.905 48.7922 234.761 48.6092 234.653C48.4263 234.545 48.213 234.509 47.9996 234.545C47.7132 234.617 47.5302 234.719 47.39 234.935C47.2498 235.151 47.2438 235.396 47.3534 235.606C47.5302 236.033 47.8228 236.381 48.213 236.699C48.5726 237.016 49.0359 237.263 49.5419 237.443C50.0418 237.616 50.5843 237.688 51.1207 237.688C51.5902 237.688 52.0535 237.616 52.4863 237.515C52.9191 237.406 53.3092 237.196 53.6689 236.95C54.0285 236.705 54.3151 236.387 54.5284 236.033C54.7418 235.643 54.8515 235.223 54.8515 234.725C54.8881 233.843 54.6016 233.099 53.992 232.572V232.565Z" fill="#4AB4FF"/>
<path d="M64.9351 230.802C64.5389 230.592 64.1121 230.483 63.6062 230.483C63.0697 230.483 62.5638 230.592 62.1005 230.838C61.8505 230.982 61.6007 231.155 61.4177 231.366C61.241 231.12 61.0215 230.94 60.7716 230.802C60.3753 230.592 59.9486 230.483 59.4427 230.483C58.9367 230.483 58.4734 230.592 58.0771 230.838C57.9675 230.91 57.8638 230.982 57.7907 231.048C57.7541 230.94 57.6809 230.838 57.6139 230.766C57.4676 230.621 57.2908 230.556 57.0774 230.556C56.8641 230.556 56.6812 230.628 56.541 230.766C56.3947 230.91 56.3276 231.083 56.3276 231.293V236.729C56.3276 236.939 56.4008 237.119 56.541 237.257C56.6812 237.395 56.8641 237.467 57.0774 237.467C57.2908 237.467 57.4736 237.395 57.6139 237.257C57.7602 237.112 57.8272 236.939 57.8272 236.729V233.303C57.8272 232.878 57.9736 232.53 58.2235 232.241C58.4734 231.954 58.7965 231.851 59.1927 231.851C59.589 231.851 59.8755 231.959 60.1255 232.206C60.3387 232.416 60.4851 232.769 60.4851 233.268V236.764C60.4851 236.974 60.5582 237.155 60.6985 237.293C60.8386 237.431 61.0215 237.503 61.2349 237.503C61.4482 237.503 61.6311 237.431 61.7713 237.293C61.9176 237.149 61.9847 236.974 61.9847 236.764V233.34C61.9847 232.913 62.0944 232.565 62.381 232.278C62.6308 231.996 62.954 231.888 63.3502 231.888C63.7464 231.888 64.033 231.996 64.2828 232.241C64.4962 232.451 64.6425 232.806 64.6425 233.303V236.801C64.6425 237.011 64.7156 237.191 64.8559 237.329C64.9961 237.467 65.179 237.539 65.3923 237.539C65.6057 237.539 65.7886 237.467 65.9287 237.329C66.0751 237.185 66.1421 237.011 66.1421 236.801V233.237C66.1421 232.674 66.0324 232.175 65.8191 231.755C65.6057 231.33 65.3192 231.012 64.9229 230.802H64.9351Z" fill="white"/>
<path d="M68.8792 230.549C68.6658 230.549 68.483 230.621 68.3428 230.759C68.1965 230.904 68.1294 231.077 68.1294 231.287V236.723C68.1294 236.933 68.2026 237.112 68.3428 237.25C68.483 237.388 68.6658 237.46 68.8792 237.46C69.0925 237.46 69.2754 237.388 69.4157 237.25C69.5619 237.106 69.629 236.933 69.629 236.723V231.293C69.629 231.083 69.5559 230.904 69.4157 230.766C69.2754 230.628 69.0925 230.556 68.8792 230.556V230.549Z" fill="white"/>
<path d="M68.879 227.832C68.6291 227.832 68.4096 227.94 68.2328 228.114C68.0561 228.288 67.9463 228.504 67.9463 228.75C67.9463 228.996 68.0561 229.211 68.2328 229.386C68.4096 229.559 68.6291 229.668 68.879 229.668C69.129 229.668 69.3484 229.559 69.5252 229.386C69.702 229.211 69.8117 228.996 69.8117 228.75C69.8117 228.504 69.702 228.288 69.5252 228.114C69.3484 227.94 69.129 227.832 68.879 227.832Z" fill="white"/>
<path d="M73.7989 235.991H73.4758C73.3295 235.991 73.2258 235.919 73.1161 235.744C73.0064 235.571 72.9698 235.319 72.9698 235.072V228.395C72.9698 228.185 72.8967 228.006 72.7564 227.868C72.6101 227.723 72.4334 227.658 72.22 227.658C72.0066 227.658 71.8238 227.73 71.6836 227.868C71.5372 228.012 71.4702 228.185 71.4702 228.395V235.067C71.4702 235.529 71.5434 235.913 71.7202 236.267C71.8969 236.62 72.1164 236.902 72.4029 237.112C72.6894 237.322 73.049 237.43 73.4453 237.43H73.4819C73.7684 237.43 73.9818 237.358 74.1646 237.257C74.3414 237.112 74.4512 236.939 74.4512 236.729C74.4512 236.519 74.378 236.338 74.2744 236.2C74.1646 236.057 73.9878 235.991 73.805 235.991H73.7989Z" fill="white"/>
<path d="M81.2241 234.365C81.3696 234.221 81.4371 234.083 81.4371 233.903C81.4371 233.231 81.2907 232.667 81.0408 232.139C80.7908 231.648 80.4315 231.221 79.9316 230.939C79.4621 230.657 78.852 230.514 78.2123 230.514C77.5299 230.514 76.9198 230.657 76.4199 230.976C75.8838 231.257 75.4875 231.683 75.2006 232.211C74.9144 232.739 74.7681 233.339 74.7681 234.047C74.7681 234.755 74.9144 235.319 75.2376 235.847C75.5607 236.374 75.9932 236.801 76.5301 237.082C77.0662 237.364 77.7124 237.544 78.4319 237.544C78.8282 237.544 79.2179 237.472 79.6512 237.334C80.0837 237.191 80.4372 237.016 80.73 236.77C80.9429 236.596 80.9799 236.416 80.9799 236.278C80.9799 236.105 80.8706 235.925 80.73 235.786C80.5836 235.678 80.4438 235.643 80.2605 235.643C80.0779 235.643 79.9373 235.715 79.791 235.816C79.6446 235.924 79.4317 236.026 79.1817 236.134C78.9318 236.243 78.6818 236.278 78.4253 236.278C77.9928 236.278 77.5661 236.171 77.2429 235.996C76.8836 235.823 76.6337 235.534 76.4199 235.223C76.3105 235.048 76.2431 234.833 76.1699 234.623H80.7242C80.9372 234.551 81.0835 234.479 81.2241 234.377V234.365ZM76.3467 232.847C76.5235 232.529 76.743 232.247 77.0662 232.073C77.3893 231.899 77.7856 231.791 78.2123 231.791C78.6086 231.791 78.9318 231.863 79.2179 232.037C79.5049 232.211 79.6874 232.463 79.828 232.745C79.9012 232.919 79.9743 233.135 80.0048 233.309H76.1642C76.2004 233.165 76.2735 232.991 76.341 232.847H76.3467Z" fill="white"/>
<path d="M33.3274 227.412C33.041 227.304 32.858 227.376 32.7178 227.622L30.4197 232.637L28.0179 227.622C27.9813 227.514 27.8715 227.412 27.7679 227.376C27.6643 227.34 27.5546 227.376 27.4448 227.412C27.3046 227.478 27.2315 227.55 27.1949 227.658C27.1583 227.766 27.1583 227.868 27.2315 228.012L29.9929 233.663L28.7738 236.344C28.6641 236.626 28.7372 236.806 29.0237 236.944C29.0969 236.981 29.17 236.981 29.2371 236.981C29.3833 236.981 29.5235 236.872 29.5967 236.699L33.5774 227.976C33.6872 227.73 33.614 227.514 33.3274 227.412Z" fill="white"/>
<path d="M40.1791 228.894C39.9292 228.402 39.5696 228.012 39.1001 227.73C38.6307 227.448 38.0943 227.304 37.4482 227.304C36.802 227.304 36.2656 227.448 35.7596 227.73C35.2597 228.012 34.9 228.438 34.6135 228.929C34.327 229.422 34.1807 230.022 34.1807 230.694C34.1807 231.365 34.327 231.929 34.6135 232.458C34.9 232.985 35.2962 233.375 35.8327 233.657C36.3326 233.939 36.9422 234.083 37.6249 234.083C38.0212 234.083 38.4113 234.011 38.8441 233.873C39.2769 233.735 39.6 233.519 39.8865 233.309C39.9963 233.237 40.0328 233.135 40.0328 233.027C40.0328 232.919 39.9597 232.817 39.856 232.709C39.7829 232.637 39.6792 232.601 39.5696 232.601C39.4598 232.601 39.3562 232.637 39.2464 232.709C39.0696 232.853 38.8136 232.991 38.5271 233.099C38.2406 233.207 37.9176 233.243 37.631 233.243C37.1311 233.243 36.6984 233.135 36.3021 232.925C35.9058 232.715 35.6194 232.397 35.406 232.007C35.2292 231.689 35.1195 231.372 35.0829 230.981H40.0694C40.2157 230.981 40.3193 230.945 40.3925 230.873C40.4656 230.801 40.5022 230.7 40.5022 230.556C40.5754 229.956 40.4656 229.391 40.1791 228.894ZM36.2351 228.504C36.5947 228.294 36.9909 228.186 37.4908 228.186C37.9602 228.186 38.3504 228.294 38.6734 228.504C38.9965 228.714 39.283 228.995 39.4598 229.386C39.6061 229.667 39.6732 229.949 39.7097 230.267H35.1561C35.1926 229.949 35.2657 229.667 35.406 229.422C35.5828 228.995 35.8754 228.714 36.229 228.504H36.2351Z" fill="white"/>
<path d="M43.946 234.083C43.4462 234.083 42.9402 234.011 42.4404 233.837C41.971 233.663 41.5808 233.447 41.2943 233.129C41.1846 233.021 41.148 232.919 41.1846 232.775C41.1846 232.631 41.2577 232.529 41.398 232.421C41.5443 232.313 41.6479 232.277 41.7942 232.313C41.9405 232.313 42.0442 232.385 42.1173 232.487C42.294 232.697 42.5501 232.877 42.8732 232.979C43.1963 233.123 43.5559 233.153 43.9522 233.153C44.5252 233.153 44.958 233.045 45.208 232.871C45.4578 232.697 45.6042 232.445 45.6408 232.163C45.6408 231.881 45.4944 231.672 45.2445 231.455C44.9946 231.281 44.5252 231.138 43.879 231.029C43.0561 230.886 42.4465 230.676 42.0502 230.321C41.654 230.004 41.4772 229.614 41.4772 229.157C41.4772 228.732 41.5869 228.384 41.8369 228.132C42.0503 227.85 42.3733 227.64 42.7329 227.496C43.0866 227.376 43.5194 227.304 43.946 227.304C44.4886 227.304 44.9885 227.412 45.3848 227.586C45.781 227.76 46.104 228.012 46.354 228.33C46.4637 228.438 46.5002 228.576 46.4637 228.684C46.4637 228.828 46.3906 228.894 46.2504 228.966C46.1406 229.038 46.0004 229.074 45.8541 229.038C45.7078 229.002 45.6042 228.929 45.4944 228.828C45.2811 228.618 45.0616 228.438 44.7752 228.336C44.5252 228.228 44.2021 228.192 43.879 228.192C43.4462 228.192 43.0927 228.264 42.8366 228.438C42.5867 228.612 42.4404 228.828 42.4404 229.074C42.4404 229.248 42.477 229.391 42.5867 229.536C42.6964 229.68 42.8366 229.781 43.0866 229.89C43.3364 229.997 43.6962 230.063 44.129 230.172C44.7386 230.28 45.2384 230.418 45.5981 230.634C45.9578 230.807 46.2077 231.059 46.354 231.305C46.5002 231.552 46.5673 231.834 46.5673 232.151C46.5673 232.541 46.4576 232.859 46.2443 233.141C46.0309 233.423 45.7078 233.669 45.3116 233.849C44.9519 234.023 44.4886 234.095 43.946 234.095V234.083Z" fill="white"/>
</g>
<path d="M122.733 204.487C123.983 204.487 124.604 205.326 125.402 205.326C125.885 205.326 126.183 205.16 126.449 204.869C126.57 204.752 126.707 204.694 126.86 204.694C127.191 204.694 127.481 204.993 127.481 205.342C127.481 205.483 127.457 205.591 127.384 205.725C127.037 206.297 126.264 206.746 125.402 206.746C124.152 206.746 123.531 205.915 122.733 205.915C122.25 205.915 121.952 206.082 121.686 206.364C121.565 206.48 121.428 206.546 121.275 206.546C120.944 206.546 120.654 206.248 120.654 205.899C120.654 205.758 120.678 205.65 120.751 205.516C121.097 204.935 121.871 204.487 122.733 204.487ZM122.733 207.585C123.983 207.585 124.604 208.432 125.402 208.432C125.885 208.432 126.183 208.258 126.449 207.976C126.57 207.859 126.707 207.793 126.86 207.793C127.191 207.793 127.481 208.092 127.481 208.441C127.481 208.582 127.457 208.69 127.384 208.823C127.037 209.405 126.264 209.853 125.402 209.853C124.152 209.853 123.531 209.014 122.733 209.014C122.25 209.014 121.952 209.189 121.686 209.471C121.565 209.579 121.428 209.654 121.275 209.654C120.944 209.654 120.654 209.355 120.654 208.997C120.654 208.865 120.678 208.748 120.751 208.624C121.097 208.042 121.871 207.585 122.733 207.585ZM131.237 205.11L130.149 205.5C129.963 205.558 129.786 205.617 129.608 205.617C129.254 205.617 128.996 205.334 128.996 204.968C128.996 204.769 129.06 204.628 129.189 204.494C129.366 204.32 129.882 204.021 130.68 203.631C131.455 203.248 131.841 203.091 132.196 203.091C132.712 203.091 133.026 203.415 133.026 203.996V211.258C133.026 211.781 132.72 212.079 132.131 212.079C131.526 212.079 131.237 211.781 131.237 211.258V205.11ZM139.683 211.39H135.847C135.137 211.39 134.783 211.008 134.783 210.385C134.783 210.044 134.863 209.804 135.13 209.405L138.724 204.079C139.24 203.315 139.659 203.074 140.32 203.074C141.037 203.074 141.408 203.423 141.408 204.096V209.911H142.561C142.947 209.911 143.189 210.177 143.189 210.651C143.189 211.124 142.947 211.39 142.561 211.39H141.408V213.882C141.408 214.414 141.134 214.696 140.537 214.696C139.965 214.696 139.683 214.414 139.683 213.882V211.39ZM139.683 209.911V205.126L136.483 209.911H139.683ZM144.801 210.95C144.801 210.227 145.325 209.679 146.035 209.679C146.736 209.679 147.219 210.194 147.219 210.916C147.219 211.64 146.703 212.179 145.994 212.179C145.293 212.179 144.801 211.673 144.801 210.95ZM148.839 207.751C148.839 204.819 150.588 203.024 153.304 203.024C155.875 203.024 157.576 204.769 157.576 207.444C157.576 210.385 155.836 212.179 153.103 212.179C150.54 212.179 148.839 210.435 148.839 207.751ZM150.645 207.585C150.645 209.571 151.757 210.726 153.224 210.726C154.707 210.726 155.763 209.628 155.763 207.618C155.763 205.624 154.65 204.478 153.191 204.478C151.709 204.478 150.645 205.575 150.645 207.585ZM159.172 207.751C159.172 204.819 160.921 203.024 163.638 203.024C166.208 203.024 167.909 204.769 167.909 207.444C167.909 210.385 166.168 212.179 163.436 212.179C160.873 212.179 159.172 210.435 159.172 207.751ZM160.977 207.585C160.977 209.571 162.09 210.726 163.557 210.726C165.04 210.726 166.095 209.628 166.095 207.618C166.095 205.624 164.984 204.478 163.524 204.478C162.041 204.478 160.977 205.575 160.977 207.585ZM169.505 207.751C169.505 204.819 171.254 203.024 173.97 203.024C176.541 203.024 178.242 204.769 178.242 207.444C178.242 210.385 176.501 212.179 173.768 212.179C171.206 212.179 169.505 210.435 169.505 207.751ZM171.311 207.585C171.311 209.571 172.422 210.726 173.89 210.726C175.372 210.726 176.428 209.628 176.428 207.618C176.428 205.624 175.316 204.478 173.858 204.478C172.374 204.478 171.311 205.575 171.311 207.585ZM185.528 208.283H184.593C184.182 208.283 183.997 208.042 183.997 207.668C183.997 207.294 184.182 207.053 184.593 207.053H185.375C185.367 206.904 185.367 206.788 185.367 206.621C185.367 206.289 185.382 205.932 185.415 205.624H184.593C184.182 205.624 183.997 205.383 183.997 205.01C183.997 204.636 184.182 204.395 184.593 204.395H185.633C186.277 201.828 188.066 200.424 190.324 200.424C191.533 200.424 192.379 200.823 192.685 201.147C192.871 201.337 192.943 201.529 192.943 201.77C192.943 202.16 192.693 202.418 192.306 202.418C191.855 202.418 191.452 201.878 190.146 201.878C188.921 201.878 187.865 202.683 187.43 204.395H190.324C190.735 204.395 190.92 204.636 190.92 205.01C190.92 205.383 190.735 205.624 190.324 205.624H187.204C187.188 205.866 187.172 206.173 187.172 206.438C187.172 206.671 187.18 206.846 187.197 207.053H190.324C190.735 207.053 190.92 207.294 190.92 207.668C190.92 208.042 190.735 208.283 190.324 208.283H187.398C187.817 209.936 188.921 210.692 190.38 210.692C191.565 210.692 191.968 210.227 192.411 210.227C192.749 210.227 192.967 210.477 192.967 210.817C192.967 211.049 192.903 211.216 192.725 211.399C192.371 211.764 191.388 212.163 190.098 212.163C187.76 212.163 186.035 210.842 185.528 208.283Z" fill="#314EC0"/>
<path d="M138.316 224.879H140.996C141.246 224.879 141.394 225.032 141.394 225.337C141.394 225.642 141.246 225.795 140.996 225.795H137.636C137.232 225.795 137.012 225.573 137.012 225.199C137.012 225.022 137.084 224.845 137.237 224.589L139.994 219.93H137.515C137.271 219.93 137.122 219.777 137.122 219.472C137.122 219.167 137.271 219.015 137.515 219.015H140.679C141.078 219.015 141.303 219.236 141.303 219.61C141.303 219.787 141.231 219.964 141.078 220.22L138.316 224.879ZM142.448 223.851V221.268C142.448 220.963 142.616 220.786 142.981 220.786C143.34 220.786 143.513 220.963 143.513 221.268V223.709C143.513 224.614 143.887 225.003 144.501 225.003C145.268 225.003 145.651 224.21 145.651 224.21V221.268C145.651 220.963 145.824 220.786 146.184 220.786C146.548 220.786 146.716 220.963 146.716 221.268V225.386C146.716 225.676 146.558 225.839 146.275 225.839C145.987 225.839 145.848 225.686 145.805 225.406L145.762 225.11H145.748C145.748 225.11 145.297 225.888 144.237 225.888C143.144 225.888 142.448 225.175 142.448 223.851ZM148.015 222.222C148.015 221.386 148.667 220.727 149.938 220.727C150.624 220.727 151.007 220.909 151.146 221.052C151.251 221.155 151.285 221.253 151.285 221.401C151.285 221.612 151.137 221.76 150.931 221.76C150.7 221.76 150.431 221.548 149.871 221.548C149.296 221.548 149.056 221.785 149.056 222.095C149.056 223.049 151.52 222.572 151.52 224.304C151.52 225.18 150.834 225.888 149.487 225.888C148.682 225.888 148.288 225.691 148.135 225.533C148.049 225.445 148 225.342 148 225.184C148 224.958 148.144 224.81 148.355 224.81C148.58 224.81 148.845 225.062 149.554 225.062C150.201 225.062 150.475 224.791 150.475 224.437C150.475 223.443 148.015 223.915 148.015 222.222ZM152.398 223.492C152.398 221.775 153.419 220.727 154.895 220.727C155.475 220.727 155.825 220.909 155.96 221.047C156.055 221.145 156.099 221.248 156.099 221.405C156.099 221.622 155.96 221.789 155.739 221.789C155.514 221.789 155.356 221.588 154.838 221.588C154.085 221.588 153.486 222.203 153.486 223.364C153.486 224.412 154.07 225.017 154.905 225.017C155.437 225.017 155.6 224.826 155.797 224.826C155.998 224.826 156.122 224.983 156.122 225.18C156.122 225.313 156.07 225.421 155.974 225.519C155.797 225.706 155.361 225.888 154.689 225.888C153.308 225.888 152.398 224.953 152.398 223.492ZM157.192 225.342V218.985C157.192 218.68 157.364 218.502 157.724 218.502C158.084 218.502 158.256 218.68 158.256 218.985V220.702C158.256 220.944 158.247 221.155 158.218 221.41H158.232C158.232 221.41 158.693 220.727 159.67 220.727C160.797 220.727 161.488 221.436 161.488 222.759V225.342C161.488 225.647 161.315 225.829 160.956 225.829C160.601 225.829 160.423 225.647 160.423 225.342V222.902C160.423 221.997 160.049 221.608 159.407 221.608C158.639 221.608 158.256 222.4 158.256 222.4V225.342C158.256 225.647 158.084 225.829 157.724 225.829C157.364 225.829 157.192 225.647 157.192 225.342ZM162.96 223.851V221.268C162.96 220.963 163.127 220.786 163.492 220.786C163.852 220.786 164.024 220.963 164.024 221.268V223.709C164.024 224.614 164.398 225.003 165.012 225.003C165.779 225.003 166.162 224.21 166.162 224.21V221.268C166.162 220.963 166.335 220.786 166.694 220.786C167.059 220.786 167.227 220.963 167.227 221.268V225.386C167.227 225.676 167.068 225.839 166.786 225.839C166.498 225.839 166.359 225.686 166.315 225.406L166.273 225.11H166.258C166.258 225.11 165.807 225.888 164.748 225.888C163.654 225.888 162.96 225.175 162.96 223.851ZM168.525 222.222C168.525 221.386 169.178 220.727 170.448 220.727C171.134 220.727 171.518 220.909 171.657 221.052C171.763 221.155 171.796 221.253 171.796 221.401C171.796 221.612 171.647 221.76 171.441 221.76C171.211 221.76 170.943 221.548 170.381 221.548C169.806 221.548 169.566 221.785 169.566 222.095C169.566 223.049 172.031 222.572 172.031 224.304C172.031 225.18 171.345 225.888 169.998 225.888C169.192 225.888 168.799 225.691 168.646 225.533C168.56 225.445 168.512 225.342 168.512 225.184C168.512 224.958 168.656 224.81 168.866 224.81C169.092 224.81 169.355 225.062 170.065 225.062C170.712 225.062 170.985 224.791 170.985 224.437C170.985 223.443 168.525 223.915 168.525 222.222ZM172.918 222.222C172.918 221.386 173.57 220.727 174.84 220.727C175.526 220.727 175.909 220.909 176.049 221.052C176.154 221.155 176.188 221.253 176.188 221.401C176.188 221.612 176.039 221.76 175.833 221.76C175.603 221.76 175.334 221.548 174.773 221.548C174.198 221.548 173.958 221.785 173.958 222.095C173.958 223.049 176.422 222.572 176.422 224.304C176.422 225.18 175.737 225.888 174.389 225.888C173.584 225.888 173.191 225.691 173.037 225.533C172.951 225.445 172.903 225.342 172.903 225.184C172.903 224.958 173.047 224.81 173.258 224.81C173.483 224.81 173.747 225.062 174.457 225.062C175.104 225.062 175.378 224.791 175.378 224.437C175.378 223.443 172.918 223.915 172.918 222.222ZM125.548 234.744L127.955 231.896C128.022 231.812 128.075 231.758 128.109 231.723C128.199 231.63 128.315 231.561 128.454 231.561C128.756 231.561 129.034 231.807 129.034 232.093C129.034 232.211 128.996 232.318 128.895 232.427L126.704 234.838L128.885 237.456C128.976 237.568 129.077 237.697 129.077 237.864C129.077 238.174 128.766 238.44 128.473 238.44C128.334 238.44 128.214 238.385 128.127 238.297C128.08 238.248 128.037 238.198 127.96 238.105L125.548 235.123V237.928C125.548 238.243 125.376 238.425 125.002 238.425C124.638 238.425 124.46 238.243 124.46 237.928V232.073C124.46 231.758 124.638 231.576 125.002 231.576C125.376 231.576 125.548 231.758 125.548 232.073V234.744ZM130.045 237.938V233.82C130.045 233.529 130.203 233.367 130.486 233.367C130.774 233.367 130.914 233.519 130.956 233.805L131.019 234.218H131.033C131.287 233.696 131.709 233.318 132.208 233.318C132.557 233.318 132.75 233.505 132.75 233.858C132.75 234.262 132.553 234.488 132.337 234.488C132.198 234.488 132.131 234.424 131.987 234.424C131.666 234.424 131.35 234.765 131.11 235.236V237.938C131.11 238.243 130.937 238.425 130.578 238.425C130.218 238.425 130.045 238.243 130.045 237.938ZM136.244 237.047V236.472C136.244 236.472 135.899 236.368 135.411 236.368C134.682 236.368 134.331 236.58 134.331 236.973C134.331 237.357 134.619 237.657 135.156 237.657C135.847 237.657 136.244 237.047 136.244 237.047ZM136.244 235.734V235.217C136.244 234.484 135.952 234.183 135.161 234.183C134.389 234.183 134.088 234.479 133.848 234.479C133.647 234.479 133.502 234.341 133.502 234.104C133.502 233.982 133.541 233.889 133.632 233.8C133.823 233.603 134.504 233.323 135.396 233.323C136.672 233.323 137.304 233.927 137.304 235.045V236.771C137.304 237.647 137.443 237.795 137.443 238.026C137.443 238.263 137.271 238.435 136.978 238.435C136.633 238.435 136.451 238.179 136.37 237.8H136.355C136.355 237.8 135.871 238.484 134.893 238.484C133.857 238.484 133.248 237.854 133.248 237.018C133.248 236.107 134.044 235.635 135.3 235.635C135.885 235.635 136.244 235.734 136.244 235.734ZM138.829 237.938V233.82C138.829 233.529 138.987 233.367 139.27 233.367C139.558 233.367 139.702 233.519 139.74 233.795L139.783 234.095H139.802C139.802 234.095 140.248 233.323 141.308 233.323C142.435 233.323 143.125 234.031 143.125 235.355V237.938C143.125 238.243 142.953 238.425 142.593 238.425C142.238 238.425 142.061 238.243 142.061 237.938V235.498C142.061 234.592 141.687 234.204 141.044 234.204C140.277 234.204 139.893 234.995 139.893 234.995V237.938C139.893 238.243 139.72 238.425 139.361 238.425C139.001 238.425 138.829 238.243 138.829 237.938ZM145.704 235.512L147.459 233.691C147.536 233.608 147.598 233.539 147.646 233.5C147.742 233.421 147.842 233.367 147.977 233.367C148.26 233.367 148.509 233.612 148.509 233.869C148.509 233.997 148.451 234.12 148.322 234.242L146.86 235.635L148.423 237.52C148.528 237.647 148.58 237.756 148.58 237.888C148.58 238.203 148.279 238.44 147.996 238.44C147.871 238.44 147.761 238.385 147.67 238.292C147.613 238.233 147.574 238.184 147.507 238.1L145.704 235.792V237.938C145.704 238.243 145.527 238.425 145.172 238.425C144.817 238.425 144.64 238.243 144.64 237.938V231.581C144.64 231.275 144.812 231.098 145.172 231.098C145.532 231.098 145.704 231.275 145.704 231.581V235.512ZM152.958 236.078H150.297V236.102C150.341 237.057 150.916 237.613 151.788 237.613C152.488 237.613 152.752 237.372 152.987 237.372C153.193 237.372 153.313 237.53 153.313 237.721C153.313 237.854 153.27 237.948 153.174 238.051C152.997 238.228 152.455 238.484 151.606 238.484C150.149 238.484 149.233 237.549 149.233 236.063C149.233 234.321 150.211 233.318 151.573 233.318C152.738 233.318 153.524 234.115 153.524 235.448C153.524 235.866 153.322 236.078 152.958 236.078ZM150.326 235.34H152.527C152.44 234.518 152.086 234.125 151.462 234.125C150.931 234.125 150.475 234.498 150.326 235.34ZM154.766 237.938V233.82C154.766 233.529 154.924 233.367 155.207 233.367C155.495 233.367 155.638 233.519 155.676 233.795L155.72 234.095H155.739C155.739 234.095 156.185 233.323 157.244 233.323C158.371 233.323 159.062 234.031 159.062 235.355V237.938C159.062 238.243 158.889 238.425 158.53 238.425C158.175 238.425 157.997 238.243 157.997 237.938V235.498C157.997 234.592 157.623 234.204 156.981 234.204C156.214 234.204 155.83 234.995 155.83 234.995V237.938C155.83 238.243 155.658 238.425 155.298 238.425C154.938 238.425 154.766 238.243 154.766 237.938ZM161.641 235.512L163.396 233.691C163.473 233.608 163.535 233.539 163.582 233.5C163.679 233.421 163.78 233.367 163.914 233.367C164.196 233.367 164.446 233.612 164.446 233.869C164.446 233.997 164.388 234.12 164.259 234.242L162.797 235.635L164.36 237.52C164.465 237.647 164.518 237.756 164.518 237.888C164.518 238.203 164.216 238.44 163.933 238.44C163.808 238.44 163.698 238.385 163.607 238.292C163.549 238.233 163.511 238.184 163.444 238.1L161.641 235.792V237.938C161.641 238.243 161.464 238.425 161.109 238.425C160.754 238.425 160.577 238.243 160.577 237.938V231.581C160.577 231.275 160.75 231.098 161.109 231.098C161.468 231.098 161.641 231.275 161.641 231.581V235.512ZM168.233 237.047V236.472C168.233 236.472 167.888 236.368 167.4 236.368C166.67 236.368 166.32 236.58 166.32 236.973C166.32 237.357 166.608 237.657 167.145 237.657C167.836 237.657 168.233 237.047 168.233 237.047ZM168.233 235.734V235.217C168.233 234.484 167.941 234.183 167.15 234.183C166.378 234.183 166.076 234.479 165.836 234.479C165.635 234.479 165.491 234.341 165.491 234.104C165.491 233.982 165.529 233.889 165.621 233.8C165.812 233.603 166.493 233.323 167.385 233.323C168.66 233.323 169.293 233.927 169.293 235.045V236.771C169.293 237.647 169.432 237.795 169.432 238.026C169.432 238.263 169.259 238.435 168.967 238.435C168.622 238.435 168.44 238.179 168.358 237.8H168.344C168.344 237.8 167.859 238.484 166.882 238.484C165.846 238.484 165.237 237.854 165.237 237.018C165.237 236.107 166.033 235.635 167.289 235.635C167.874 235.635 168.233 235.734 168.233 235.734ZM170.559 234.818C170.559 233.982 171.211 233.323 172.481 233.323C173.167 233.323 173.55 233.505 173.689 233.648C173.795 233.751 173.829 233.849 173.829 233.997C173.829 234.208 173.68 234.356 173.473 234.356C173.244 234.356 172.975 234.144 172.414 234.144C171.839 234.144 171.599 234.381 171.599 234.691C171.599 235.645 174.063 235.168 174.063 236.9C174.063 237.776 173.378 238.484 172.031 238.484C171.225 238.484 170.832 238.287 170.678 238.129C170.592 238.041 170.544 237.938 170.544 237.78C170.544 237.554 170.688 237.406 170.899 237.406C171.124 237.406 171.389 237.657 172.098 237.657C172.745 237.657 173.019 237.387 173.019 237.033C173.019 236.038 170.559 236.511 170.559 234.818ZM174.95 234.818C174.95 233.982 175.603 233.323 176.873 233.323C177.559 233.323 177.942 233.505 178.081 233.648C178.187 233.751 178.22 233.849 178.22 233.997C178.22 234.208 178.071 234.356 177.866 234.356C177.635 234.356 177.367 234.144 176.806 234.144C176.23 234.144 175.991 234.381 175.991 234.691C175.991 235.645 178.455 235.168 178.455 236.9C178.455 237.776 177.769 238.484 176.422 238.484C175.616 238.484 175.224 238.287 175.071 238.129C174.984 238.041 174.936 237.938 174.936 237.78C174.936 237.554 175.08 237.406 175.291 237.406C175.516 237.406 175.78 237.657 176.49 237.657C177.137 237.657 177.41 237.387 177.41 237.033C177.41 236.038 174.95 236.511 174.95 234.818ZM183.058 236.078H180.397V236.102C180.44 237.057 181.015 237.613 181.888 237.613C182.588 237.613 182.852 237.372 183.086 237.372C183.293 237.372 183.413 237.53 183.413 237.721C183.413 237.854 183.369 237.948 183.274 238.051C183.096 238.228 182.554 238.484 181.706 238.484C180.249 238.484 179.333 237.549 179.333 236.063C179.333 234.321 180.311 233.318 181.672 233.318C182.838 233.318 183.624 234.115 183.624 235.448C183.624 235.866 183.423 236.078 183.058 236.078ZM180.425 235.34H182.626C182.54 234.518 182.185 234.125 181.562 234.125C181.03 234.125 180.574 234.498 180.425 235.34ZM184.865 237.938V233.82C184.865 233.529 185.024 233.367 185.306 233.367C185.594 233.367 185.738 233.519 185.777 233.795L185.819 234.095H185.839C185.839 234.095 186.285 233.323 187.345 233.323C188.47 233.323 189.161 234.031 189.161 235.355V237.938C189.161 238.243 188.988 238.425 188.629 238.425C188.274 238.425 188.097 238.243 188.097 237.938V235.498C188.097 234.592 187.723 234.204 187.08 234.204C186.314 234.204 185.93 234.995 185.93 234.995V237.938C185.93 238.243 185.757 238.425 185.398 238.425C185.038 238.425 184.865 238.243 184.865 237.938Z" fill="#314EC0"/>
<path d="M226.447 204.37C227.697 204.37 228.318 205.185 229.117 205.185C229.601 205.185 229.899 205.023 230.165 204.741C230.286 204.628 230.423 204.571 230.577 204.571C230.907 204.571 231.197 204.862 231.197 205.201C231.197 205.338 231.173 205.443 231.1 205.572C230.753 206.129 229.98 206.564 229.117 206.564C227.866 206.564 227.245 205.758 226.447 205.758C225.963 205.758 225.664 205.919 225.399 206.193C225.278 206.306 225.141 206.371 224.987 206.371C224.657 206.371 224.366 206.08 224.366 205.741C224.366 205.604 224.39 205.499 224.463 205.37C224.81 204.805 225.584 204.37 226.447 204.37ZM226.447 207.379C227.697 207.379 228.318 208.202 229.117 208.202C229.601 208.202 229.899 208.033 230.165 207.759C230.286 207.646 230.423 207.581 230.577 207.581C230.907 207.581 231.197 207.872 231.197 208.211C231.197 208.348 231.173 208.453 231.1 208.582C230.753 209.147 229.98 209.582 229.117 209.582C227.866 209.582 227.245 208.767 226.447 208.767C225.963 208.767 225.664 208.937 225.399 209.211C225.278 209.316 225.141 209.389 224.987 209.389C224.657 209.389 224.366 209.098 224.366 208.751C224.366 208.622 224.39 208.509 224.463 208.388C224.81 207.823 225.584 207.379 226.447 207.379ZM235.141 210.196H238.98C239.367 210.196 239.633 210.462 239.633 210.938C239.633 211.422 239.367 211.688 238.98 211.688H233.964C233.31 211.688 232.94 211.325 232.94 210.752C232.94 210.373 233.101 210.099 233.528 209.744L235.101 208.404C236.326 207.363 237.311 206.532 237.311 205.564C237.311 204.854 236.819 204.362 235.738 204.362C234.73 204.362 234.23 204.757 233.85 204.757C233.504 204.757 233.278 204.531 233.278 204.176C233.278 203.966 233.343 203.805 233.488 203.66C233.803 203.345 234.778 202.949 236.084 202.949C238.206 202.949 239.198 203.934 239.198 205.354C239.198 206.855 237.964 207.928 236.383 209.195L235.141 210.196ZM240.988 207.541C240.988 204.692 242.739 202.949 245.456 202.949C248.029 202.949 249.731 204.644 249.731 207.242C249.731 210.099 247.989 211.842 245.255 211.842C242.691 211.842 240.988 210.147 240.988 207.541ZM242.795 207.379C242.795 209.308 243.908 210.43 245.376 210.43C246.86 210.43 247.917 209.364 247.917 207.412C247.917 205.475 246.803 204.362 245.343 204.362C243.86 204.362 242.795 205.427 242.795 207.379ZM251.336 210.647C251.336 209.945 251.86 209.413 252.57 209.413C253.272 209.413 253.756 209.913 253.756 210.615C253.756 211.317 253.239 211.842 252.53 211.842C251.828 211.842 251.336 211.349 251.336 210.647ZM255.377 207.541C255.377 204.692 257.127 202.949 259.845 202.949C262.417 202.949 264.119 204.644 264.119 207.242C264.119 210.099 262.377 211.842 259.643 211.842C257.078 211.842 255.377 210.147 255.377 207.541ZM257.183 207.379C257.183 209.308 258.296 210.43 259.764 210.43C261.248 210.43 262.305 209.364 262.305 207.412C262.305 205.475 261.192 204.362 259.732 204.362C258.248 204.362 257.183 205.427 257.183 207.379ZM265.716 207.541C265.716 204.692 267.467 202.949 270.185 202.949C272.757 202.949 274.459 204.644 274.459 207.242C274.459 210.099 272.717 211.842 269.982 211.842C267.418 211.842 265.716 210.147 265.716 207.541ZM267.523 207.379C267.523 209.308 268.636 210.43 270.104 210.43C271.588 210.43 272.644 209.364 272.644 207.412C272.644 205.475 271.531 204.362 270.072 204.362C268.587 204.362 267.523 205.427 267.523 207.379ZM276.056 207.541C276.056 204.692 277.806 202.949 280.524 202.949C283.096 202.949 284.798 204.644 284.798 207.242C284.798 210.099 283.056 211.842 280.322 211.842C277.757 211.842 276.056 210.147 276.056 207.541ZM277.862 207.379C277.862 209.308 278.975 210.43 280.443 210.43C281.927 210.43 282.984 209.364 282.984 207.412C282.984 205.475 281.871 204.362 280.411 204.362C278.927 204.362 277.862 205.427 277.862 207.379ZM292.089 208.057H291.154C290.742 208.057 290.556 207.823 290.556 207.46C290.556 207.097 290.742 206.863 291.154 206.863H291.936C291.928 206.718 291.928 206.605 291.928 206.443C291.928 206.121 291.944 205.774 291.976 205.475H291.154C290.742 205.475 290.556 205.241 290.556 204.878C290.556 204.515 290.742 204.281 291.154 204.281H292.194C292.839 201.788 294.63 200.424 296.888 200.424C298.097 200.424 298.945 200.811 299.251 201.126C299.436 201.311 299.509 201.497 299.509 201.731C299.509 202.11 299.259 202.36 298.872 202.36C298.42 202.36 298.017 201.836 296.711 201.836C295.484 201.836 294.428 202.619 293.993 204.281H296.888C297.3 204.281 297.485 204.515 297.485 204.878C297.485 205.241 297.3 205.475 296.888 205.475H293.767C293.751 205.709 293.734 206.008 293.734 206.266C293.734 206.492 293.743 206.661 293.758 206.863H296.888C297.3 206.863 297.485 207.097 297.485 207.46C297.485 207.823 297.3 208.057 296.888 208.057H293.961C294.379 209.663 295.484 210.397 296.945 210.397C298.13 210.397 298.534 209.945 298.977 209.945C299.316 209.945 299.534 210.188 299.534 210.518C299.534 210.744 299.469 210.906 299.292 211.083C298.937 211.438 297.953 211.826 296.662 211.826C294.323 211.826 292.597 210.543 292.089 208.057Z" fill="#314EC0"/>
<path d="M242.979 224.879H245.66C245.908 224.879 246.057 225.032 246.057 225.337C246.057 225.642 245.908 225.794 245.66 225.794H242.298C241.896 225.794 241.675 225.573 241.675 225.199C241.675 225.022 241.747 224.845 241.901 224.589L244.657 219.929H242.179C241.934 219.929 241.785 219.777 241.785 219.472C241.785 219.167 241.934 219.014 242.179 219.014H245.343C245.741 219.014 245.967 219.236 245.967 219.61C245.967 219.787 245.895 219.964 245.741 220.22L242.979 224.879ZM247.112 223.851V221.268C247.112 220.963 247.28 220.785 247.644 220.785C248.004 220.785 248.177 220.963 248.177 221.268V223.708C248.177 224.613 248.551 225.002 249.164 225.002C249.931 225.002 250.315 224.21 250.315 224.21V221.268C250.315 220.963 250.487 220.785 250.847 220.785C251.212 220.785 251.379 220.963 251.379 221.268V225.386C251.379 225.676 251.221 225.839 250.938 225.839C250.65 225.839 250.511 225.686 250.469 225.406L250.425 225.11H250.41C250.41 225.11 249.96 225.888 248.9 225.888C247.808 225.888 247.112 225.174 247.112 223.851ZM252.679 222.222C252.679 221.386 253.331 220.726 254.601 220.726C255.286 220.726 255.67 220.908 255.809 221.051C255.915 221.154 255.948 221.253 255.948 221.401C255.948 221.612 255.799 221.76 255.593 221.76C255.363 221.76 255.095 221.548 254.534 221.548C253.958 221.548 253.719 221.784 253.719 222.094C253.719 223.049 256.183 222.572 256.183 224.303C256.183 225.179 255.498 225.888 254.151 225.888C253.345 225.888 252.952 225.691 252.798 225.534C252.712 225.445 252.664 225.342 252.664 225.184C252.664 224.958 252.808 224.81 253.019 224.81C253.244 224.81 253.508 225.061 254.218 225.061C254.865 225.061 255.138 224.791 255.138 224.436C255.138 223.442 252.679 223.915 252.679 222.222ZM257.06 223.492C257.06 221.774 258.082 220.726 259.559 220.726C260.139 220.726 260.489 220.908 260.623 221.046C260.719 221.145 260.762 221.248 260.762 221.405C260.762 221.622 260.623 221.789 260.402 221.789C260.177 221.789 260.018 221.587 259.501 221.587C258.748 221.587 258.149 222.202 258.149 223.364C258.149 224.412 258.734 225.017 259.568 225.017C260.1 225.017 260.263 224.825 260.459 224.825C260.662 224.825 260.786 224.983 260.786 225.179C260.786 225.312 260.733 225.42 260.637 225.519C260.459 225.706 260.023 225.888 259.352 225.888C257.971 225.888 257.06 224.953 257.06 223.492ZM261.855 225.342V218.985C261.855 218.68 262.027 218.502 262.387 218.502C262.746 218.502 262.919 218.68 262.919 218.985V220.702C262.919 220.943 262.91 221.154 262.881 221.41H262.895C262.895 221.41 263.356 220.726 264.334 220.726C265.461 220.726 266.151 221.435 266.151 222.759V225.342C266.151 225.647 265.979 225.829 265.619 225.829C265.264 225.829 265.087 225.647 265.087 225.342V222.901C265.087 221.996 264.713 221.607 264.07 221.607C263.303 221.607 262.919 222.399 262.919 222.399V225.342C262.919 225.647 262.746 225.829 262.387 225.829C262.027 225.829 261.855 225.647 261.855 225.342ZM267.622 223.851V221.268C267.622 220.963 267.79 220.785 268.155 220.785C268.514 220.785 268.687 220.963 268.687 221.268V223.708C268.687 224.613 269.061 225.002 269.675 225.002C270.442 225.002 270.825 224.21 270.825 224.21V221.268C270.825 220.963 270.998 220.785 271.358 220.785C271.722 220.785 271.89 220.963 271.89 221.268V225.386C271.89 225.676 271.732 225.839 271.449 225.839C271.161 225.839 271.022 225.686 270.979 225.406L270.936 225.11H270.922C270.922 225.11 270.471 225.888 269.411 225.888C268.318 225.888 267.622 225.174 267.622 223.851ZM273.189 222.222C273.189 221.386 273.841 220.726 275.112 220.726C275.798 220.726 276.181 220.908 276.32 221.051C276.425 221.154 276.459 221.253 276.459 221.401C276.459 221.612 276.311 221.76 276.105 221.76C275.874 221.76 275.605 221.548 275.045 221.548C274.47 221.548 274.23 221.784 274.23 222.094C274.23 223.049 276.694 222.572 276.694 224.303C276.694 225.179 276.008 225.888 274.661 225.888C273.856 225.888 273.462 225.691 273.309 225.534C273.223 225.445 273.175 225.342 273.175 225.184C273.175 224.958 273.318 224.81 273.529 224.81C273.754 224.81 274.019 225.061 274.728 225.061C275.375 225.061 275.649 224.791 275.649 224.436C275.649 223.442 273.189 223.915 273.189 222.222ZM277.581 222.222C277.581 221.386 278.233 220.726 279.504 220.726C280.189 220.726 280.573 220.908 280.711 221.051C280.817 221.154 280.85 221.253 280.85 221.401C280.85 221.612 280.702 221.76 280.496 221.76C280.266 221.76 279.997 221.548 279.436 221.548C278.861 221.548 278.621 221.784 278.621 222.094C278.621 223.049 281.085 222.572 281.085 224.303C281.085 225.179 280.4 225.888 279.053 225.888C278.248 225.888 277.854 225.691 277.701 225.534C277.614 225.445 277.567 225.342 277.567 225.184C277.567 224.958 277.71 224.81 277.921 224.81C278.147 224.81 278.41 225.061 279.12 225.061C279.767 225.061 280.04 224.791 280.04 224.436C280.04 223.442 277.581 223.915 277.581 222.222ZM230.212 234.744L232.618 231.896C232.685 231.812 232.739 231.757 232.772 231.723C232.863 231.63 232.978 231.561 233.117 231.561C233.419 231.561 233.697 231.807 233.697 232.092C233.697 232.211 233.659 232.318 233.558 232.427L231.367 234.838L233.549 237.456C233.639 237.568 233.74 237.697 233.74 237.864C233.74 238.174 233.428 238.439 233.136 238.439C232.997 238.439 232.877 238.385 232.791 238.297C232.743 238.248 232.7 238.198 232.623 238.105L230.212 235.123V237.928C230.212 238.243 230.039 238.425 229.665 238.425C229.3 238.425 229.124 238.243 229.124 237.928V232.072C229.124 231.757 229.3 231.576 229.665 231.576C230.039 231.576 230.212 231.757 230.212 232.072V234.744ZM234.709 237.938V233.82C234.709 233.529 234.867 233.366 235.15 233.366C235.437 233.366 235.576 233.519 235.62 233.805L235.682 234.218H235.697C235.95 233.696 236.372 233.318 236.871 233.318C237.221 233.318 237.412 233.505 237.412 233.858C237.412 234.262 237.216 234.488 237.001 234.488C236.862 234.488 236.795 234.424 236.651 234.424C236.329 234.424 236.012 234.764 235.774 235.236V237.938C235.774 238.243 235.601 238.425 235.241 238.425C234.882 238.425 234.709 238.243 234.709 237.938ZM240.908 237.047V236.472C240.908 236.472 240.563 236.368 240.073 236.368C239.345 236.368 238.995 236.58 238.995 236.973C238.995 237.357 239.283 237.657 239.82 237.657C240.51 237.657 240.908 237.047 240.908 237.047ZM240.908 235.734V235.217C240.908 234.484 240.615 234.183 239.825 234.183C239.052 234.183 238.75 234.479 238.511 234.479C238.309 234.479 238.165 234.341 238.165 234.104C238.165 233.982 238.204 233.889 238.295 233.8C238.487 233.603 239.168 233.323 240.06 233.323C241.334 233.323 241.968 233.927 241.968 235.045V236.771C241.968 237.647 242.107 237.795 242.107 238.026C242.107 238.263 241.934 238.435 241.641 238.435C241.297 238.435 241.114 238.179 241.032 237.8H241.019C241.019 237.8 240.534 238.484 239.556 238.484C238.52 238.484 237.912 237.854 237.912 237.017C237.912 236.107 238.707 235.635 239.964 235.635C240.548 235.635 240.908 235.734 240.908 235.734ZM243.492 237.938V233.82C243.492 233.529 243.65 233.366 243.933 233.366C244.221 233.366 244.365 233.519 244.403 233.795L244.446 234.095H244.466C244.466 234.095 244.911 233.323 245.971 233.323C247.097 233.323 247.788 234.031 247.788 235.355V237.938C247.788 238.243 247.615 238.425 247.256 238.425C246.901 238.425 246.723 238.243 246.723 237.938V235.498C246.723 234.591 246.349 234.204 245.707 234.204C244.94 234.204 244.557 234.995 244.557 234.995V237.938C244.557 238.243 244.384 238.425 244.025 238.425C243.665 238.425 243.492 238.243 243.492 237.938ZM250.367 235.512L252.122 233.691C252.199 233.608 252.261 233.539 252.31 233.5C252.405 233.421 252.506 233.366 252.64 233.366C252.923 233.366 253.172 233.612 253.172 233.868C253.172 233.996 253.115 234.12 252.985 234.242L251.523 235.635L253.086 237.52C253.192 237.647 253.244 237.756 253.244 237.888C253.244 238.203 252.942 238.439 252.659 238.439C252.535 238.439 252.424 238.385 252.333 238.292C252.275 238.233 252.238 238.184 252.171 238.1L250.367 235.792V237.938C250.367 238.243 250.19 238.425 249.835 238.425C249.48 238.425 249.303 238.243 249.303 237.938V231.581C249.303 231.275 249.476 231.098 249.835 231.098C250.195 231.098 250.367 231.275 250.367 231.581V235.512ZM257.622 236.078H254.961V236.102C255.003 237.057 255.579 237.613 256.452 237.613C257.151 237.613 257.416 237.372 257.65 237.372C257.857 237.372 257.976 237.53 257.976 237.721C257.976 237.854 257.933 237.948 257.837 238.051C257.66 238.228 257.118 238.484 256.269 238.484C254.812 238.484 253.896 237.549 253.896 236.063C253.896 234.321 254.874 233.318 256.236 233.318C257.401 233.318 258.187 234.115 258.187 235.448C258.187 235.866 257.986 236.078 257.622 236.078ZM254.989 235.34H257.19C257.104 234.518 256.749 234.125 256.126 234.125C255.593 234.125 255.138 234.498 254.989 235.34ZM259.429 237.938V233.82C259.429 233.529 259.587 233.366 259.87 233.366C260.158 233.366 260.302 233.519 260.34 233.795L260.383 234.095H260.402C260.402 234.095 260.848 233.323 261.908 233.323C263.035 233.323 263.725 234.031 263.725 235.355V237.938C263.725 238.243 263.552 238.425 263.192 238.425C262.838 238.425 262.661 238.243 262.661 237.938V235.498C262.661 234.591 262.287 234.204 261.644 234.204C260.877 234.204 260.493 234.995 260.493 234.995V237.938C260.493 238.243 260.321 238.425 259.961 238.425C259.602 238.425 259.429 238.243 259.429 237.938ZM266.304 235.512L268.059 233.691C268.136 233.608 268.198 233.539 268.246 233.5C268.342 233.421 268.442 233.366 268.577 233.366C268.86 233.366 269.109 233.612 269.109 233.868C269.109 233.996 269.051 234.12 268.922 234.242L267.46 235.635L269.023 237.52C269.128 237.647 269.181 237.756 269.181 237.888C269.181 238.203 268.879 238.439 268.596 238.439C268.471 238.439 268.361 238.385 268.27 238.292C268.212 238.233 268.174 238.184 268.107 238.1L266.304 235.792V237.938C266.304 238.243 266.127 238.425 265.772 238.425C265.417 238.425 265.24 238.243 265.24 237.938V231.581C265.24 231.275 265.412 231.098 265.772 231.098C266.132 231.098 266.304 231.275 266.304 231.581V235.512ZM272.897 237.047V236.472C272.897 236.472 272.552 236.368 272.062 236.368C271.334 236.368 270.984 236.58 270.984 236.973C270.984 237.357 271.271 237.657 271.809 237.657C272.498 237.657 272.897 237.047 272.897 237.047ZM272.897 235.734V235.217C272.897 234.484 272.604 234.183 271.813 234.183C271.041 234.183 270.739 234.479 270.499 234.479C270.298 234.479 270.154 234.341 270.154 234.104C270.154 233.982 270.193 233.889 270.283 233.8C270.476 233.603 271.157 233.323 272.048 233.323C273.323 233.323 273.957 233.927 273.957 235.045V236.771C273.957 237.647 274.096 237.795 274.096 238.026C274.096 238.263 273.923 238.435 273.63 238.435C273.285 238.435 273.103 238.179 273.021 237.8H273.007C273.007 237.8 272.523 238.484 271.544 238.484C270.509 238.484 269.9 237.854 269.9 237.017C269.9 236.107 270.696 235.635 271.952 235.635C272.537 235.635 272.897 235.734 272.897 235.734ZM275.222 234.818C275.222 233.982 275.874 233.323 277.145 233.323C277.83 233.323 278.214 233.505 278.353 233.647C278.459 233.751 278.492 233.849 278.492 233.996C278.492 234.208 278.343 234.356 278.137 234.356C277.907 234.356 277.639 234.144 277.077 234.144C276.502 234.144 276.262 234.381 276.262 234.691C276.262 235.645 278.727 235.168 278.727 236.9C278.727 237.775 278.041 238.484 276.694 238.484C275.888 238.484 275.495 238.287 275.342 238.129C275.255 238.041 275.208 237.938 275.208 237.78C275.208 237.554 275.352 237.406 275.562 237.406C275.788 237.406 276.051 237.657 276.761 237.657C277.408 237.657 277.681 237.387 277.681 237.033C277.681 236.038 275.222 236.511 275.222 234.818ZM279.614 234.818C279.614 233.982 280.266 233.323 281.536 233.323C282.222 233.323 282.606 233.505 282.745 233.647C282.85 233.751 282.884 233.849 282.884 233.996C282.884 234.208 282.735 234.356 282.529 234.356C282.299 234.356 282.03 234.144 281.469 234.144C280.894 234.144 280.654 234.381 280.654 234.691C280.654 235.645 283.119 235.168 283.119 236.9C283.119 237.775 282.433 238.484 281.085 238.484C280.28 238.484 279.887 238.287 279.733 238.129C279.648 238.041 279.599 237.938 279.599 237.78C279.599 237.554 279.743 237.406 279.954 237.406C280.179 237.406 280.443 237.657 281.153 237.657C281.8 237.657 282.074 237.387 282.074 237.033C282.074 236.038 279.614 236.511 279.614 234.818ZM287.721 236.078H285.06V236.102C285.104 237.057 285.679 237.613 286.551 237.613C287.252 237.613 287.515 237.372 287.75 237.372C287.956 237.372 288.076 237.53 288.076 237.721C288.076 237.854 288.033 237.948 287.937 238.051C287.76 238.228 287.218 238.484 286.37 238.484C284.911 238.484 283.996 237.549 283.996 236.063C283.996 234.321 284.974 233.318 286.335 233.318C287.5 233.318 288.287 234.115 288.287 235.448C288.287 235.866 288.085 236.078 287.721 236.078ZM285.089 235.34H287.29C287.203 234.518 286.848 234.125 286.226 234.125C285.693 234.125 285.238 234.498 285.089 235.34ZM289.529 237.938V233.82C289.529 233.529 289.687 233.366 289.97 233.366C290.257 233.366 290.401 233.519 290.44 233.795L290.483 234.095H290.502C290.502 234.095 290.948 233.323 292.007 233.323C293.134 233.323 293.825 234.031 293.825 235.355V237.938C293.825 238.243 293.652 238.425 293.292 238.425C292.938 238.425 292.76 238.243 292.76 237.938V235.498C292.76 234.591 292.386 234.204 291.744 234.204C290.976 234.204 290.593 234.995 290.593 234.995V237.938C290.593 238.243 290.421 238.425 290.061 238.425C289.701 238.425 289.529 238.243 289.529 237.938Z" fill="#314EC0"/>
<path d="M35.0953 276.922H33.2086C32.7164 276.922 32.4088 276.607 32.4088 275.979C32.4088 275.343 32.7095 275.035 33.2086 275.035H39.3609C39.8599 275.035 40.1607 275.343 40.1607 275.979C40.1607 276.607 39.8531 276.922 39.3609 276.922H37.4742V283.457C37.4742 284.12 37.0914 284.503 36.2847 284.503C35.4781 284.503 35.0953 284.12 35.0953 283.457V276.922ZM40.3863 281.721V278.419C40.3863 277.776 40.7554 277.4 41.5484 277.4C42.3414 277.4 42.7105 277.776 42.7105 278.419V281.475C42.7105 282.397 43.0728 282.76 43.6744 282.76C44.481 282.76 44.8775 281.898 44.8775 281.898V278.419C44.8775 277.776 45.2535 277.4 46.0396 277.4C46.8326 277.4 47.2017 277.776 47.2017 278.419V283.566C47.2017 284.188 46.8668 284.53 46.2379 284.53C45.6295 284.53 45.3424 284.229 45.233 283.785L45.1783 283.539H45.151C45.151 283.539 44.5631 284.592 43.025 284.592C41.4185 284.592 40.3863 283.566 40.3863 281.721ZM41.0426 275.479C41.0426 274.816 41.5553 274.304 42.2457 274.304C42.9361 274.304 43.4215 274.789 43.4215 275.452C43.4215 276.115 42.9156 276.628 42.2183 276.628C41.5279 276.628 41.0426 276.143 41.0426 275.479ZM44.1461 275.479C44.1461 274.816 44.6588 274.304 45.3492 274.304C46.0396 274.304 46.525 274.789 46.525 275.452C46.525 276.115 46.0191 276.628 45.3287 276.628C44.6314 276.628 44.1461 276.143 44.1461 275.479ZM48.9381 283.491V278.344C48.9381 277.715 49.2799 277.38 49.9088 277.38C50.5172 277.38 50.7974 277.681 50.9136 278.125L51.0025 278.528H51.023C51.3443 277.817 51.9049 277.305 52.6363 277.305C53.1832 277.305 53.5113 277.619 53.5113 278.33C53.5113 279.198 53.1627 279.711 52.732 279.711C52.5269 279.711 52.4039 279.588 52.1783 279.588C51.7545 279.588 51.399 280.114 51.2623 280.367V283.491C51.2623 284.134 50.8931 284.503 50.1002 284.503C49.314 284.503 48.9381 284.134 48.9381 283.491ZM56.731 280.388L58.6588 277.995C58.7955 277.824 58.8638 277.742 58.9459 277.66C59.1304 277.476 59.3765 277.38 59.6705 277.38C60.2789 277.38 60.8599 277.899 60.8599 278.46C60.8599 278.665 60.7916 278.884 60.5318 279.157L59.1646 280.606L60.689 282.685C60.8326 282.883 60.9761 283.122 60.9761 283.402C60.9761 284.052 60.3062 284.523 59.7047 284.523C59.3902 284.523 59.1578 284.407 58.9664 284.216C58.857 284.106 58.775 283.99 58.6656 283.819L56.731 280.921V283.491C56.731 284.134 56.3551 284.503 55.5689 284.503C54.7896 284.503 54.4068 284.134 54.4068 283.491V275.343C54.4068 274.7 54.7828 274.324 55.5689 274.324C56.3619 274.324 56.731 274.7 56.731 275.343V280.388ZM67.3336 281.475H64.0045V281.488C64.148 282.356 64.7496 282.828 65.7681 282.828C66.6295 282.828 67.026 282.555 67.3951 282.555C67.8189 282.555 68.065 282.883 68.065 283.259C68.065 283.539 67.983 283.73 67.7916 283.922C67.4908 284.223 66.6842 284.599 65.3443 284.599C63.0406 284.599 61.7008 283.272 61.7008 281.188C61.7008 278.774 63.1773 277.305 65.358 277.305C67.231 277.305 68.3863 278.453 68.3863 280.312C68.3863 281.092 67.9967 281.475 67.3336 281.475ZM64.0045 280.148H66.2398C66.1373 279.287 65.7955 278.904 65.1597 278.904C64.6197 278.904 64.1685 279.232 64.0045 280.148ZM69.7603 283.491V278.419C69.7603 277.776 70.1363 277.4 70.9224 277.4C71.7154 277.4 72.0845 277.776 72.0845 278.419V283.491C72.0845 284.134 71.7154 284.503 70.9224 284.503C70.1363 284.503 69.7603 284.134 69.7603 283.491ZM69.6099 275.459C69.6099 274.755 70.1363 274.229 70.9361 274.229C71.7086 274.229 72.2418 274.762 72.2418 275.432C72.2418 276.136 71.7154 276.662 70.9088 276.662C70.1431 276.662 69.6099 276.129 69.6099 275.459Z" fill="#1F1F1F"/>
<path d="M121.102 280.559V282.65H124.001C124.466 282.65 124.773 282.951 124.773 283.553C124.773 284.154 124.466 284.455 124.001 284.455H119.783C119.106 284.455 118.717 284.059 118.717 283.396V276.095C118.717 275.432 119.106 275.035 119.783 275.035H123.967C124.438 275.035 124.746 275.336 124.746 275.938C124.746 276.539 124.438 276.84 123.967 276.84H121.102V278.781H123.529C123.98 278.781 124.281 279.096 124.281 279.67C124.281 280.251 123.98 280.559 123.529 280.559H121.102ZM126.147 280.818V276.033C126.147 275.37 126.537 274.987 127.344 274.987C128.15 274.987 128.533 275.37 128.533 276.033V280.531C128.533 282.076 129.217 282.726 130.181 282.726C131.083 282.726 131.725 282.124 131.725 280.777V276.033C131.725 275.37 132.108 274.987 132.908 274.987C133.715 274.987 134.104 275.37 134.104 276.033V280.572C134.104 283.218 132.676 284.599 130.071 284.599C127.487 284.599 126.147 283.279 126.147 280.818ZM136.456 279.772H139.833C140.284 279.772 140.578 280.08 140.578 280.654C140.578 281.229 140.284 281.536 139.833 281.536H136.456C136.005 281.536 135.711 281.229 135.711 280.654C135.711 280.08 136.005 279.772 136.456 279.772ZM144.153 282.459L143.832 283.491C143.736 283.826 143.64 284.093 143.47 284.264C143.312 284.428 143.053 284.523 142.724 284.523C142.15 284.523 141.494 284.154 141.494 283.532C141.494 283.354 141.528 283.225 141.638 282.896L143.77 276.635C143.969 276.047 144.146 275.726 144.413 275.452C144.707 275.158 145.151 274.994 145.828 274.994C146.512 274.994 146.949 275.158 147.243 275.452C147.516 275.726 147.687 276.047 147.886 276.635L150.018 282.855C150.128 283.184 150.162 283.327 150.162 283.478C150.162 284.182 149.451 284.523 148.87 284.523C148.528 284.523 148.262 284.414 148.084 284.229C147.906 284.059 147.817 283.812 147.715 283.491L147.38 282.459H144.153ZM144.652 280.682H146.84L146.115 278.405C145.889 277.667 145.725 277.038 145.725 277.038H145.698C145.698 277.038 145.548 277.667 145.329 278.405L144.652 280.682ZM151.187 281.721V278.419C151.187 277.776 151.556 277.4 152.349 277.4C153.142 277.4 153.512 277.776 153.512 278.419V281.475C153.512 282.397 153.874 282.76 154.475 282.76C155.282 282.76 155.679 281.898 155.679 281.898V278.419C155.679 277.776 156.055 277.4 156.841 277.4C157.634 277.4 158.003 277.776 158.003 278.419V283.566C158.003 284.188 157.668 284.53 157.039 284.53C156.431 284.53 156.143 284.229 156.034 283.785L155.979 283.539H155.952C155.952 283.539 155.364 284.592 153.826 284.592C152.22 284.592 151.187 283.566 151.187 281.721ZM159.445 279.629C159.445 278.296 160.464 277.318 162.576 277.318C163.642 277.318 164.258 277.578 164.511 277.838C164.702 278.022 164.77 278.221 164.77 278.494C164.77 278.904 164.47 279.191 164.08 279.191C163.683 279.191 163.253 278.918 162.508 278.918C161.906 278.918 161.701 279.096 161.701 279.349C161.701 280.265 165.092 279.69 165.092 282.192C165.092 283.532 164.032 284.585 161.81 284.585C160.628 284.585 160.033 284.339 159.739 284.045C159.568 283.874 159.479 283.683 159.479 283.382C159.479 282.979 159.766 282.685 160.17 282.685C160.566 282.685 161.004 282.979 161.886 282.979C162.59 282.979 162.836 282.78 162.836 282.473C162.836 281.509 159.445 282.083 159.445 279.629ZM166.445 282.534V275.343C166.445 274.7 166.814 274.324 167.607 274.324C168.393 274.324 168.769 274.7 168.769 275.343V281.926C168.769 282.603 168.933 282.773 169.18 282.773C169.275 282.773 169.371 282.753 169.453 282.753C169.72 282.753 169.973 282.965 169.973 283.396C169.973 283.724 169.87 283.942 169.699 284.113C169.494 284.325 169.132 284.53 168.387 284.53C167.115 284.53 166.445 283.867 166.445 282.534ZM174.847 282.35V281.728C174.847 281.728 174.484 281.625 173.951 281.625C173.233 281.625 172.871 281.844 172.871 282.254C172.871 282.644 173.158 282.938 173.712 282.938C174.443 282.938 174.847 282.35 174.847 282.35ZM174.847 280.401V279.978C174.847 279.321 174.546 279.027 173.561 279.027C172.413 279.027 172.016 279.424 171.579 279.424C171.196 279.424 170.909 279.164 170.909 278.686C170.909 278.426 170.984 278.241 171.162 278.063C171.497 277.729 172.55 277.312 174.088 277.312C176.118 277.312 177.15 278.159 177.15 279.779V281.789C177.15 283.047 177.437 283.238 177.437 283.703C177.437 284.161 177.089 284.53 176.398 284.53C175.722 284.53 175.339 284.141 175.161 283.662H175.14C175.14 283.662 174.518 284.585 173.035 284.585C171.483 284.585 170.533 283.635 170.533 282.343C170.533 280.996 171.839 280.299 173.732 280.299C174.375 280.299 174.847 280.401 174.847 280.401ZM178.852 283.491V278.344C178.852 277.715 179.194 277.38 179.823 277.38C180.431 277.38 180.719 277.681 180.828 278.118L180.876 278.371H180.903C180.903 278.371 181.498 277.318 183.029 277.318C184.656 277.318 185.688 278.344 185.688 280.189V283.491C185.688 284.134 185.312 284.503 184.526 284.503C183.733 284.503 183.364 284.134 183.364 283.491V280.436C183.364 279.513 183.002 279.15 182.387 279.15C181.58 279.15 181.177 280.012 181.177 280.012V283.491C181.177 284.134 180.807 284.503 180.014 284.503C179.228 284.503 178.852 284.134 178.852 283.491ZM191.738 276.744V275.343C191.738 274.7 192.114 274.324 192.9 274.324C193.693 274.324 194.062 274.7 194.062 275.343V283.566C194.062 284.188 193.727 284.53 193.098 284.53C192.49 284.53 192.21 284.229 192.094 283.785L192.039 283.539H192.012C192.012 283.539 191.41 284.592 189.906 284.592C188.17 284.592 187.008 283.437 187.008 281.146C187.008 278.74 188.443 277.305 191.082 277.305C191.485 277.305 191.738 277.38 191.738 277.38L191.759 277.373C191.745 277.175 191.738 276.977 191.738 276.744ZM191.738 281.898V279.226C191.738 279.226 191.444 279.062 190.897 279.062C189.995 279.062 189.373 279.684 189.373 281.01C189.373 282.295 189.838 282.76 190.514 282.76C191.342 282.76 191.738 281.898 191.738 281.898Z" fill="#1F1F1F"/>
<path d="M221.645 283.396V276.095C221.645 275.432 222.035 275.035 222.712 275.035H225.07C228.242 275.035 229.965 276.758 229.965 279.54C229.965 282.589 228.098 284.455 224.858 284.455H222.712C222.035 284.455 221.645 284.059 221.645 283.396ZM224.031 282.671H224.961C226.54 282.671 227.524 281.687 227.524 279.684C227.524 277.688 226.663 276.819 224.961 276.819H224.031V282.671ZM236.643 281.475H233.314V281.488C233.458 282.356 234.059 282.828 235.078 282.828C235.939 282.828 236.336 282.555 236.705 282.555C237.129 282.555 237.375 282.883 237.375 283.259C237.375 283.539 237.293 283.73 237.101 283.922C236.801 284.223 235.994 284.599 234.654 284.599C232.35 284.599 231.011 283.272 231.011 281.188C231.011 278.774 232.487 277.305 234.668 277.305C236.541 277.305 237.696 278.453 237.696 280.312C237.696 281.092 237.306 281.475 236.643 281.475ZM233.314 280.148H235.55C235.447 279.287 235.105 278.904 234.47 278.904C233.93 278.904 233.478 279.232 233.314 280.148ZM239.022 281.721V278.419C239.022 277.776 239.391 277.4 240.184 277.4C240.977 277.4 241.346 277.776 241.346 278.419V281.475C241.346 282.397 241.709 282.76 242.31 282.76C243.117 282.76 243.513 281.898 243.513 281.898V278.419C243.513 277.776 243.889 277.4 244.676 277.4C245.469 277.4 245.838 277.776 245.838 278.419V283.566C245.838 284.188 245.503 284.53 244.874 284.53C244.265 284.53 243.978 284.229 243.869 283.785L243.814 283.539H243.787C243.787 283.539 243.199 284.592 241.661 284.592C240.055 284.592 239.022 283.566 239.022 281.721ZM247.916 279.144H247.54C247.102 279.144 246.808 278.856 246.808 278.296C246.808 277.749 247.102 277.455 247.54 277.455H248.005L248.264 276.409C248.422 275.794 248.736 275.514 249.31 275.514C249.905 275.514 250.24 275.842 250.24 276.457V277.455H251.177C251.614 277.455 251.908 277.749 251.908 278.296C251.908 278.856 251.614 279.144 251.177 279.144H250.24V281.939C250.24 282.507 250.425 282.746 250.807 282.746C251.074 282.746 251.204 282.671 251.375 282.671C251.71 282.671 251.963 282.944 251.963 283.341C251.963 283.655 251.867 283.867 251.669 284.065C251.436 284.291 250.937 284.53 250.131 284.53C248.613 284.53 247.916 283.833 247.916 282.302V279.144ZM252.708 279.629C252.708 278.296 253.726 277.318 255.839 277.318C256.905 277.318 257.52 277.578 257.773 277.838C257.965 278.022 258.033 278.221 258.033 278.494C258.033 278.904 257.732 279.191 257.343 279.191C256.946 279.191 256.515 278.918 255.77 278.918C255.169 278.918 254.964 279.096 254.964 279.349C254.964 280.265 258.354 279.69 258.354 282.192C258.354 283.532 257.295 284.585 255.073 284.585C253.89 284.585 253.296 284.339 253.002 284.045C252.831 283.874 252.742 283.683 252.742 283.382C252.742 282.979 253.029 282.685 253.432 282.685C253.829 282.685 254.266 282.979 255.148 282.979C255.852 282.979 256.098 282.78 256.098 282.473C256.098 281.509 252.708 282.083 252.708 279.629ZM259.366 281.229C259.366 278.822 260.87 277.318 263.126 277.318C263.98 277.318 264.5 277.578 264.725 277.811C264.924 278.009 265.013 278.207 265.013 278.549C265.013 279 264.725 279.328 264.322 279.328C263.926 279.328 263.768 279.068 263.146 279.068C262.374 279.068 261.731 279.711 261.731 281.003C261.731 282.179 262.381 282.828 263.263 282.828C263.898 282.828 264.09 282.582 264.404 282.582C264.807 282.582 265.054 282.924 265.054 283.3C265.054 283.587 264.958 283.806 264.766 284.004C264.479 284.305 263.871 284.599 262.777 284.599C260.679 284.599 259.366 283.286 259.366 281.229ZM266.25 283.491V275.343C266.25 274.7 266.626 274.324 267.412 274.324C268.205 274.324 268.574 274.7 268.574 275.343V276.963C268.574 277.346 268.547 277.694 268.499 278.104H268.519C268.519 278.104 269.121 277.318 270.427 277.318C272.054 277.318 273.086 278.344 273.086 280.189V283.491C273.086 284.134 272.71 284.503 271.924 284.503C271.131 284.503 270.762 284.134 270.762 283.491V280.436C270.762 279.513 270.399 279.15 269.784 279.15C268.977 279.15 268.574 280.012 268.574 280.012V283.491C268.574 284.134 268.205 284.503 267.412 284.503C266.626 284.503 266.25 284.134 266.25 283.491ZM274.747 282.534V275.343C274.747 274.7 275.116 274.324 275.909 274.324C276.695 274.324 277.071 274.7 277.071 275.343V281.926C277.071 282.603 277.235 282.773 277.481 282.773C277.577 282.773 277.673 282.753 277.755 282.753C278.021 282.753 278.274 282.965 278.274 283.396C278.274 283.724 278.172 283.942 278.001 284.113C277.796 284.325 277.433 284.53 276.688 284.53C275.417 284.53 274.747 283.867 274.747 282.534ZM283.148 282.35V281.728C283.148 281.728 282.786 281.625 282.253 281.625C281.535 281.625 281.173 281.844 281.173 282.254C281.173 282.644 281.46 282.938 282.013 282.938C282.745 282.938 283.148 282.35 283.148 282.35ZM283.148 280.401V279.978C283.148 279.321 282.847 279.027 281.863 279.027C280.715 279.027 280.318 279.424 279.881 279.424C279.498 279.424 279.211 279.164 279.211 278.686C279.211 278.426 279.286 278.241 279.464 278.063C279.799 277.729 280.851 277.312 282.389 277.312C284.42 277.312 285.452 278.159 285.452 279.779V281.789C285.452 283.047 285.739 283.238 285.739 283.703C285.739 284.161 285.39 284.53 284.7 284.53C284.023 284.53 283.64 284.141 283.463 283.662H283.442C283.442 283.662 282.82 284.585 281.337 284.585C279.785 284.585 278.835 283.635 278.835 282.343C278.835 280.996 280.14 280.299 282.034 280.299C282.677 280.299 283.148 280.401 283.148 280.401ZM287.154 283.491V278.344C287.154 277.715 287.496 277.38 288.125 277.38C288.733 277.38 289.02 277.681 289.13 278.118L289.178 278.371H289.205C289.205 278.371 289.8 277.318 291.331 277.318C292.958 277.318 293.99 278.344 293.99 280.189V283.491C293.99 284.134 293.614 284.503 292.828 284.503C292.035 284.503 291.666 284.134 291.666 283.491V280.436C291.666 279.513 291.304 279.15 290.688 279.15C289.882 279.15 289.478 280.012 289.478 280.012V283.491C289.478 284.134 289.109 284.503 288.316 284.503C287.53 284.503 287.154 284.134 287.154 283.491ZM300.04 276.744V275.343C300.04 274.7 300.416 274.324 301.202 274.324C301.995 274.324 302.364 274.7 302.364 275.343V283.566C302.364 284.188 302.029 284.53 301.4 284.53C300.792 284.53 300.512 284.229 300.395 283.785L300.341 283.539H300.313C300.313 283.539 299.712 284.592 298.208 284.592C296.471 284.592 295.309 283.437 295.309 281.146C295.309 278.74 296.745 277.305 299.384 277.305C299.787 277.305 300.04 277.38 300.04 277.38L300.06 277.373C300.047 277.175 300.04 276.977 300.04 276.744ZM300.04 281.898V279.226C300.04 279.226 299.746 279.062 299.199 279.062C298.297 279.062 297.675 279.684 297.675 281.01C297.675 282.295 298.139 282.76 298.816 282.76C299.643 282.76 300.04 281.898 300.04 281.898Z" fill="#1F1F1F"/>
<circle cx="54.7388" cy="170.689" r="23.5" fill="url(#paint5_linear_2213_693)" stroke="url(#paint6_linear_2213_693)"/>
<g filter="url(#filter4_d_2213_693)">
<path fill-rule="evenodd" clip-rule="evenodd" d="M51.5914 181.541C51.5863 181.536 51.5782 181.536 51.5731 181.541C51.5681 181.546 51.5599 181.546 51.5549 181.541L43.017 173.003C41.6953 171.681 41.6953 169.538 43.017 168.216C44.3387 166.895 46.4816 166.895 47.8033 168.216L51.5409 171.954C51.9315 172.345 52.5646 172.345 52.9552 171.954L62.7756 162.134C64.0769 160.832 66.1868 160.832 67.4881 162.134C68.7894 163.435 68.7894 165.545 67.4881 166.846L52.4975 181.837C52.329 182.005 52.0558 182.005 51.8873 181.837L51.5914 181.541Z" fill="url(#paint7_linear_2213_693)" shape-rendering="crispEdges"/>
</g>
<circle cx="262.752" cy="23.2982" r="22.1863" fill="url(#paint8_linear_2213_693)" stroke="#314EC0"/>
<g filter="url(#filter5_d_2213_693)">
<path fill-rule="evenodd" clip-rule="evenodd" d="M253.819 28.5179C252.762 29.5749 252.762 31.2885 253.819 32.3454C254.876 33.4023 256.589 33.4023 257.646 32.3454L262.216 27.7758C262.607 27.3852 263.24 27.3852 263.63 27.7757L268.172 32.3174C269.245 33.3909 270.986 33.3909 272.059 32.3174C273.133 31.2439 273.133 29.5034 272.059 28.4299L267.518 23.8883C267.127 23.4977 267.127 22.8646 267.518 22.4741L272.098 17.8935C273.155 16.8366 273.155 15.1229 272.098 14.066C271.041 13.0091 269.328 13.0091 268.271 14.066L263.69 18.6466C263.3 19.0371 262.667 19.0371 262.276 18.6466L257.845 14.2155C256.771 13.142 255.031 13.142 253.957 14.2155C252.884 15.289 252.884 17.0294 253.957 18.1029L258.389 22.5341C258.779 22.9246 258.779 23.5578 258.389 23.9483L253.819 28.5179Z" fill="url(#paint9_linear_2213_693)" shape-rendering="crispEdges"/>
</g>
<defs>
<filter id="filter0_d_2213_693" x="2" y="170.928" width="103.148" height="96.4883" filterUnits="userSpaceOnUse" color-interpolation-filters="sRGB">
<feFlood flood-opacity="0" result="BackgroundImageFix"/>
<feColorMatrix in="SourceAlpha" type="matrix" values="0 0 0 0 0 0 0 0 0 0 0 0 0 0 0 0 0 0 127 0" result="hardAlpha"/>
<feOffset dy="4"/>
<feGaussianBlur stdDeviation="2"/>
<feComposite in2="hardAlpha" operator="out"/>
<feColorMatrix type="matrix" values="0 0 0 0 0 0 0 0 0 0 0 0 0 0 0 0 0 0 0.25 0"/>
<feBlend mode="normal" in2="BackgroundImageFix" result="effect1_dropShadow_2213_693"/>
<feBlend mode="normal" in="SourceGraphic" in2="effect1_dropShadow_2213_693" result="shape"/>
</filter>
<filter id="filter1_d_2213_693" x="106.188" y="80.061" width="103.148" height="187.831" filterUnits="userSpaceOnUse" color-interpolation-filters="sRGB">
<feFlood flood-opacity="0" result="BackgroundImageFix"/>
<feColorMatrix in="SourceAlpha" type="matrix" values="0 0 0 0 0 0 0 0 0 0 0 0 0 0 0 0 0 0 127 0" result="hardAlpha"/>
<feOffset dy="4"/>
<feGaussianBlur stdDeviation="2"/>
<feComposite in2="hardAlpha" operator="out"/>
<feColorMatrix type="matrix" values="0 0 0 0 0 0 0 0 0 0 0 0 0 0 0 0 0 0 0.25 0"/>
<feBlend mode="normal" in2="BackgroundImageFix" result="effect1_dropShadow_2213_693"/>
<feBlend mode="normal" in="SourceGraphic" in2="effect1_dropShadow_2213_693" result="shape"/>
</filter>
<filter id="filter2_d_2213_693" x="144.363" y="66.3628" width="31.8647" height="31.8647" filterUnits="userSpaceOnUse" color-interpolation-filters="sRGB">
<feFlood flood-opacity="0" result="BackgroundImageFix"/>
<feColorMatrix in="SourceAlpha" type="matrix" values="0 0 0 0 0 0 0 0 0 0 0 0 0 0 0 0 0 0 127 0" result="hardAlpha"/>
<feOffset dx="2" dy="2"/>
<feGaussianBlur stdDeviation="3"/>
<feComposite in2="hardAlpha" operator="out"/>
<feColorMatrix type="matrix" values="0 0 0 0 0.966858 0 0 0 0 0.779204 0 0 0 0 0.779204 0 0 0 1 0"/>
<feBlend mode="normal" in2="BackgroundImageFix" result="effect1_dropShadow_2213_693"/>
<feBlend mode="normal" in="SourceGraphic" in2="effect1_dropShadow_2213_693" result="shape"/>
</filter>
<filter id="filter3_d_2213_693" x="210.851" y="23.9233" width="103.148" height="243.969" filterUnits="userSpaceOnUse" color-interpolation-filters="sRGB">
<feFlood flood-opacity="0" result="BackgroundImageFix"/>
<feColorMatrix in="SourceAlpha" type="matrix" values="0 0 0 0 0 0 0 0 0 0 0 0 0 0 0 0 0 0 127 0" result="hardAlpha"/>
<feOffset dy="4"/>
<feGaussianBlur stdDeviation="2"/>
<feComposite in2="hardAlpha" operator="out"/>
<feColorMatrix type="matrix" values="0 0 0 0 0 0 0 0 0 0 0 0 0 0 0 0 0 0 0.25 0"/>
<feBlend mode="normal" in2="BackgroundImageFix" result="effect1_dropShadow_2213_693"/>
<feBlend mode="normal" in="SourceGraphic" in2="effect1_dropShadow_2213_693" result="shape"/>
</filter>
<filter id="filter4_d_2213_693" x="38.0259" y="157.158" width="38.438" height="32.8052" filterUnits="userSpaceOnUse" color-interpolation-filters="sRGB">
<feFlood flood-opacity="0" result="BackgroundImageFix"/>
<feColorMatrix in="SourceAlpha" type="matrix" values="0 0 0 0 0 0 0 0 0 0 0 0 0 0 0 0 0 0 127 0" result="hardAlpha"/>
<feOffset dx="2" dy="2"/>
<feGaussianBlur stdDeviation="3"/>
<feComposite in2="hardAlpha" operator="out"/>
<feColorMatrix type="matrix" values="0 0 0 0 0.162476 0 0 0 0 0.678889 0 0 0 0 0.276087 0 0 0 1 0"/>
<feBlend mode="normal" in2="BackgroundImageFix" result="effect1_dropShadow_2213_693"/>
<feBlend mode="normal" in="SourceGraphic" in2="effect1_dropShadow_2213_693" result="shape"/>
</filter>
<filter id="filter5_d_2213_693" x="249.026" y="9.27344" width="31.8647" height="31.8647" filterUnits="userSpaceOnUse" color-interpolation-filters="sRGB">
<feFlood flood-opacity="0" result="BackgroundImageFix"/>
<feColorMatrix in="SourceAlpha" type="matrix" values="0 0 0 0 0 0 0 0 0 0 0 0 0 0 0 0 0 0 127 0" result="hardAlpha"/>
<feOffset dx="2" dy="2"/>
<feGaussianBlur stdDeviation="3"/>
<feComposite in2="hardAlpha" operator="out"/>
<feColorMatrix type="matrix" values="0 0 0 0 0.966858 0 0 0 0 0.779204 0 0 0 0 0.779204 0 0 0 1 0"/>
<feBlend mode="normal" in2="BackgroundImageFix" result="effect1_dropShadow_2213_693"/>
<feBlend mode="normal" in="SourceGraphic" in2="effect1_dropShadow_2213_693" result="shape"/>
</filter>
<linearGradient id="paint0_linear_2213_693" x1="53.5743" y1="170.928" x2="53.5743" y2="259.416" gradientUnits="userSpaceOnUse">
<stop stop-color="#4AB4FF"/>
<stop offset="1" stop-color="#314EC0"/>
</linearGradient>
<linearGradient id="paint1_linear_2213_693" x1="157.762" y1="80.061" x2="157.762" y2="259.892" gradientUnits="userSpaceOnUse">
<stop stop-color="white"/>
<stop offset="1" stop-color="white" stop-opacity="0.6"/>
</linearGradient>
<linearGradient id="paint2_linear_2213_693" x1="143.477" y1="62.3153" x2="175.392" y2="96.1526" gradientUnits="userSpaceOnUse">
<stop stop-color="white"/>
<stop offset="1" stop-color="white"/>
</linearGradient>
<linearGradient id="paint3_linear_2213_693" x1="163.14" y1="78.2816" x2="146.647" y2="62.1806" gradientUnits="userSpaceOnUse">
<stop stop-color="#EC6F69"/>
<stop offset="1" stop-color="#F8F8F8" stop-opacity="0.71"/>
</linearGradient>
<linearGradient id="paint4_linear_2213_693" x1="262.425" y1="23.9233" x2="262.425" y2="259.892" gradientUnits="userSpaceOnUse">
<stop stop-color="white"/>
<stop offset="1" stop-color="white" stop-opacity="0.6"/>
</linearGradient>
<linearGradient id="paint5_linear_2213_693" x1="39.2811" y1="151.571" x2="73.0439" y2="187.367" gradientUnits="userSpaceOnUse">
<stop stop-color="#B1FFB4"/>
<stop offset="1" stop-color="#3ED872"/>
</linearGradient>
<linearGradient id="paint6_linear_2213_693" x1="75.4845" y1="182.079" x2="35.6201" y2="155.232" gradientUnits="userSpaceOnUse">
<stop stop-color="#239588"/>
<stop offset="1" stop-color="#D8FFDE"/>
</linearGradient>
<linearGradient id="paint7_linear_2213_693" x1="62.201" y1="170.907" x2="41.8938" y2="151.084" gradientUnits="userSpaceOnUse">
<stop stop-color="#F8F8F8" stop-opacity="0.94"/>
<stop offset="1" stop-color="#F8F8F8" stop-opacity="0.71"/>
</linearGradient>
<linearGradient id="paint8_linear_2213_693" x1="248.141" y1="5.22599" x2="280.055" y2="39.0632" gradientUnits="userSpaceOnUse">
<stop stop-color="white"/>
<stop offset="1" stop-color="white"/>
</linearGradient>
<linearGradient id="paint9_linear_2213_693" x1="267.804" y1="21.1922" x2="251.31" y2="5.09129" gradientUnits="userSpaceOnUse">
<stop stop-color="#EC6F69"/>
<stop offset="1" stop-color="#F8F8F8" stop-opacity="0.71"/>
</linearGradient>
</defs>
</svg>
